<?xml version="1.0" standalone="no"?>
<!DOCTYPE svg PUBLIC "-//W3C//DTD SVG 1.1//EN" "http://www.w3.org/Graphics/SVG/1.1/DTD/svg11.dtd" >
<svg xmlns="http://www.w3.org/2000/svg" xmlns:xlink="http://www.w3.org/1999/xlink" version="1.1">
<metadata></metadata>
<defs>
<font id="webfontregular" horiz-adv-x="2048" >
<font-face units-per-em="4096" ascent="3276" descent="-820" />
<missing-glyph horiz-adv-x="1204" />
<glyph horiz-adv-x="0" />
<glyph horiz-adv-x="0" />
<glyph horiz-adv-x="0" />
<glyph unicode="&#x9;" horiz-adv-x="0" />
<glyph unicode="&#xd;" horiz-adv-x="0" />
<glyph unicode=" "  horiz-adv-x="1204" />
<glyph unicode="&#x09;" horiz-adv-x="1204" />
<glyph unicode="&#xa0;" horiz-adv-x="1204" />
<glyph unicode="!" horiz-adv-x="1057" d="M176 2417q0 161 99.5 260.5t261.5 99.5q178 0 271 -94t93 -270q0 -118 -33 -324l-163 -959q-7 -59 -17 -136t-37 -136t-78 -59q-13 0 -44 2t-46 2q-34 9 -54 71t-29.5 138.5t-14.5 117.5l-168 934q-36 208 -41 353zM217 180v271q0 112 44 146t161 34q51 0 130 4t107 4 q105 0 151 -40t46 -165v-262q0 -82 -20 -118t-60 -45t-133 -9h-237q-121 0 -155 32.5t-34 147.5z" />
<glyph unicode="&#x22;" horiz-adv-x="1843" d="M160 2732h610l-176 -1098h-258zM1069 2732h610l-176 -1098h-262z" />
<glyph unicode="#" horiz-adv-x="2372" d="M135 930l41 237h483l111 451h-455l41 237h480l225 877h262l-229 -877h462l230 877h262l-225 -877h422l-41 -237h-447l-110 -451h421l-40 -237h-447l-242 -930h-262l242 930h-463l-242 -930h-262l242 930h-459zM922 1167h462l107 451h-463z" />
<glyph unicode="$" horiz-adv-x="2404" d="M41 758q0 39 29.5 72.5t68.5 33.5q19 0 136 -84t214 -144.5t251.5 -120t332.5 -73.5v824q-286 112 -453 197t-297 237.5t-130 376.5q0 195 108.5 333t281 205.5t363.5 67.5q23 0 65 -5t62 -7v258q0 245 148 245q88 0 119.5 -80t31.5 -215q0 -38 -2 -105t-2 -91 q13 5 69 49.5t91 44.5q53 0 106 -82l357 -471q45 -65 45 -102q0 -36 -25.5 -67.5t-60.5 -31.5q-15 0 -86.5 41.5t-160 94.5t-182.5 102t-153 66v-463q41 -17 78.5 -30.5t97 -34t144.5 -50.5q185 -64 333.5 -189.5t233 -296.5t84.5 -366q0 -259 -141 -467t-383 -295 q-166 -61 -447 -61q0 -18 4 -86t4 -111q0 -287 -155 -287q-156 0 -156 295q0 48 4 125t4 96q-47 6 -166 28t-190 22q-36 0 -56.5 -22t-44 -65t-46 -66t-62.5 -23q-85 0 -143 118l-295 570q-29 34 -29 90zM827 2183q0 -102 64.5 -152.5t181.5 -88.5v434h-16q-230 0 -230 -193 zM1368 434q177 29 277 108.5t100 243.5q0 236 -377 373v-725z" />
<glyph unicode="%" horiz-adv-x="2777" d="M70 2085q0 171 60.5 329.5t183 258.5t296.5 100q178 0 305.5 -96.5t191.5 -252.5t64 -331q0 -180 -57.5 -343.5t-181 -266.5t-309.5 -103q-280 0 -416.5 205t-136.5 500zM479 2212q0 -46 2 -141t2 -142q0 -340 144 -340q131 0 131 250q0 27 -2 75t-2 56q0 31 2 112t2 122 q0 368 -135 368q-104 0 -127 -135q-17 -85 -17 -225zM553 135q0 66 94 234l1270 2195q12 20 36.5 65.5t51.5 80.5t59.5 57t73.5 22q61 0 106.5 -41t45.5 -102q0 -59 -66 -180l-1302 -2249q-14 -25 -40.5 -72.5t-50.5 -78t-59 -52.5t-76 -22q-61 0 -102 42.5t-41 100.5z M1610 696q0 270 141.5 477t398.5 207q178 0 305 -96t192 -252.5t65 -331.5q0 -178 -58.5 -341t-183 -265t-307.5 -102q-281 0 -417 203.5t-136 500.5zM2019 836q0 -50 2 -148t2 -147q0 -340 144 -340q131 0 131 258q0 25 -2 67t-2 52q0 47 2 143t2 143q0 320 -139 320 q-100 0 -123 -135q-17 -81 -17 -213z" />
<glyph unicode="&#x26;" horiz-adv-x="3215" d="M123 623q0 192 96.5 345.5t245 265.5t342.5 212q-197 309 -197 528q0 226 141.5 405.5t360.5 278.5t436 99q187 0 362.5 -70.5t285.5 -209t110 -327.5q0 -238 -164 -407.5t-422 -296.5l303 -328q104 -114 168 -114q101 20 312 372q229 372 229 627q0 74 -49 155t-49 119 q0 58 43.5 98t120.5 87q126 82 204 82q115 0 115 -201q0 -283 -88 -574t-240.5 -556.5t-347.5 -491.5q103 -102 186.5 -184t168.5 -146.5t186 -99.5q71 -20 116 -49t48 -90q0 -82 -70 -117t-164 -35h-704l-275 254q-289 -165 -489 -246.5t-436 -81.5q-356 0 -620.5 179.5 t-264.5 517.5zM836 844q0 -191 137 -327t325 -136q99 0 201 57q111 63 115 107q0 27 -21.5 54t-48.5 40l-512 512q-89 -47 -142.5 -128.5t-53.5 -178.5zM1225 2200q0 -217 221 -431q109 59 181.5 160t72.5 217q0 109 -66 196t-172 87q-101 0 -169 -65t-68 -164z" />
<glyph unicode="'" horiz-adv-x="1024" d="M197 2732h630l-172 -1098h-282z" />
<glyph unicode="(" horiz-adv-x="1495" d="M123 1049q0 266 62.5 531t186.5 506t304 437q267 289 459 307q81 0 138.5 -47.5t57.5 -128.5q0 -57 -126 -238.5t-216.5 -333.5t-173 -421t-82.5 -612q0 -358 81 -626.5t172.5 -419.5t215.5 -318t129 -222q0 -77 -49.5 -134.5t-126.5 -57.5q-128 0 -238 81t-241 222 q-180 196 -304 437.5t-186.5 506.5t-62.5 531z" />
<glyph unicode=")" horiz-adv-x="1495" d="M176 -553q0 54 127 238t217 336t172 419t82 609q0 365 -81.5 637t-178.5 426.5t-216.5 310.5t-121.5 211q0 76 49.5 136t126.5 60q127 0 234.5 -81.5t244.5 -225.5q269 -291 411 -679t142 -795q0 -267 -62.5 -533.5t-187.5 -508.5t-303 -433q-262 -293 -458 -307 q-76 0 -136.5 52t-60.5 128z" />
<glyph unicode="*" horiz-adv-x="1634" d="M147 2212q0 71 35.5 130.5t100.5 65.5q86 0 162.5 -35t148.5 -88.5t164 -121.5q-12 47 -44 138t-47.5 155.5t-15.5 128.5q0 74 49.5 131t122.5 57q82 0 131.5 -46.5t49.5 -125.5q0 -165 -107 -438q74 59 145.5 114t145 91t147.5 36q72 0 124 -56t52 -128 q0 -188 -368 -188q-35 0 -102 -2t-103 -2q5 -4 132 -87t186 -150.5t59 -156.5q0 -67 -49.5 -119t-114.5 -61q-102 0 -161.5 77.5t-93 182.5t-73.5 232q-50 -217 -109 -350.5t-194 -133.5q-70 0 -131 49.5t-61 118.5q0 87 60 151t173 138t152 113q-115 0 -172 -4 q-163 0 -271.5 32t-122.5 152z" />
<glyph unicode="+" d="M29 1323v315h827v824h328v-824h831v-315h-831v-823h-328v823h-827z" />
<glyph unicode="," horiz-adv-x="1061" d="M217 180v283q0 83 14 120.5t53 50.5t122 13q56 0 139 4t110 4q100 0 142.5 -42.5t42.5 -174.5v-295q0 -274 -116 -472.5t-376 -198.5q-63 0 -97 19t-34 83q0 49 82.5 108.5t117 94t34.5 121.5q0 104 -95 110q-90 3 -114.5 39t-24.5 133z" />
<glyph unicode="-" horiz-adv-x="987" d="M20 946q0 152 267 152h401q118 0 192.5 -24.5t77.5 -115.5q0 -99 -75.5 -127t-198.5 -28h-393q-121 0 -196 25t-75 118z" />
<glyph unicode="." horiz-adv-x="1061" d="M221 213q0 34 2 101t2 100q0 136 39.5 176.5t173.5 40.5h197q91 0 133.5 -15.5t57 -60t14.5 -137.5v-176q0 -116 -9 -160.5t-49.5 -63t-138.5 -18.5h-192q-146 0 -188 40t-42 173z" />
<glyph unicode="/" horiz-adv-x="1843" d="M111 -696q0 61 73 274l1192 2945q64 156 117.5 238t153.5 82q75 0 129.5 -58.5t54.5 -134.5q0 -26 -7 -56t-21 -69t-25 -71l-1221 -3015q-55 -140 -113 -228t-153 -88q-81 0 -130.5 48.5t-49.5 132.5z" />
<glyph unicode="0" horiz-adv-x="2404" d="M135 1343q0 328 118.5 636.5t357.5 508t573 199.5q347 0 594.5 -188t371 -493t123.5 -650q0 -351 -112 -670t-352 -521t-601 -202q-366 0 -608.5 196t-353.5 511t-111 673zM868 1126q0 -290 29 -471q62 -376 320 -376q207 0 263 191t56 468q0 116 2 352t2 352 q0 750 -332 750q-155 0 -228.5 -109.5t-88.5 -233t-23 -341.5v-582z" />
<glyph unicode="1" horiz-adv-x="2404" d="M467 2077q0 89 143 176l746 401q79 45 127 45q110 0 110 -205v-1736v-185q0 -110 29 -172.5t119 -97.5q87 -27 129 -51.5t47 -87.5q0 -83 -59.5 -123.5t-149.5 -40.5h-917q-218 0 -218 143q0 64 38.5 97.5t121 68t127.5 66t58 88.5q32 131 32 405v590v180q0 135 -25 197 t-88 84t-198 27q-70 0 -121 33t-51 98z" />
<glyph unicode="2" horiz-adv-x="2404" d="M102 172q0 194 172 370.5t524.5 447t532.5 468.5t180 418q0 163 -110 292.5t-271 129.5q-131 0 -239.5 -71t-108.5 -195q0 -68 43.5 -120t108.5 -52q85 0 119 82q65 -72 65 -185q0 -152 -120.5 -250t-276.5 -98q-163 0 -281.5 63.5t-182.5 183t-64 281.5 q0 233 142.5 395.5t361 242t446.5 79.5q188 0 381 -47.5t357 -145t264 -249.5t100 -352q0 -258 -133.5 -434t-258 -251.5t-473.5 -266t-479 -314.5q414 0 619 4q212 4 340.5 29.5t232.5 126.5q59 57 98 57q29 0 51.5 -20t22.5 -50q0 -43 -20 -98l-213 -528q-31 -71 -73 -93 t-112 -22h-82h-1425q-118 0 -178 32.5t-60 139.5z" />
<glyph unicode="3" horiz-adv-x="2404" d="M98 618q0 204 122.5 344t320.5 140q165 0 278 -105t131 -268q-72 12 -78 12q-65 0 -108.5 -44.5t-46.5 -110.5q0 -119 100 -184.5t223 -65.5q207 0 343.5 165t136.5 376q0 147 -71 271.5t-194.5 194.5t-271.5 70q-143 0 -246 -20q-135 0 -135 82q0 62 119 135l622 520 q-143 20 -253 20q-246 0 -367.5 -34t-263.5 -179q-61 -56 -86.5 -75t-69.5 -19q-39 0 -70.5 27.5t-31.5 66.5q0 31 20 66l344 663q40 67 60 91t63 24q42 0 74 -24q73 -76 148.5 -99.5t183.5 -23.5h131h819h49q180 0 180 -94q0 -104 -168 -250l-716 -607q240 -18 439.5 -99 t322 -244.5t122.5 -409.5q0 -327 -169.5 -539t-444.5 -307.5t-594 -95.5q-206 0 -432 65.5t-380.5 208t-154.5 356.5z" />
<glyph unicode="4" horiz-adv-x="2404" d="M78 823q0 96 26.5 156.5t96.5 163.5l925 1331q79 112 130.5 140t185.5 28q55 0 155 2t140 2q119 0 176 -18.5t57 -79.5v-123v-1151q0 -10 -2 -33t-2 -37q0 -80 97.5 -92.5t133 -28.5t35.5 -153q0 -19 -2 -74t-2 -90q0 -57 -23.5 -78t-103.5 -24q-90 -3 -112.5 -28 t-22.5 -104v-20q0 -196 90 -229q79 -27 121.5 -55t42.5 -93q0 -135 -172 -135h-819q-164 0 -164 119q0 85 103 132.5t139 76.5t36 176q0 82 -12 123q-15 41 -131 41q-20 0 -54 -2t-44 -2h-803q-119 0 -170 28t-51 131zM737 1155q0 -45 119 -45h311q79 0 123.5 17t44.5 81 v107v598l2 21t2 32q0 66 -28 66q-24 0 -66 -70l-471 -721q-37 -62 -37 -86z" />
<glyph unicode="5" horiz-adv-x="2404" d="M94 586q0 162 105.5 281.5t267.5 119.5q142 0 253 -84.5t140 -222.5q-8 4 -24 4q-64 0 -102 -42t-38 -101q0 -117 104.5 -175.5t227.5 -58.5q140 0 245.5 82t161.5 213t56 266q0 163 -82 287t-219.5 189t-300.5 65q-118 0 -184 -24t-167 -77.5t-178 -66.5q-35 0 -58 22 t-23 56q0 38 12 70l487 1241h836h102q234 0 336 69q69 58 119 58q65 0 65 -86q0 -69 -83 -287t-150 -254q-49 -21 -148 -21q-107 0 -292.5 2.5t-345.5 2.5q-106 0 -137.5 -20.5t-71.5 -119.5q-19 -39 -39.5 -83t-33.5 -85t-13 -77q4 -5 24 -5q14 0 31.5 5t30.5 8 q173 49 393 49q227 0 416.5 -95t300 -271.5t110.5 -407.5q0 -334 -164.5 -566.5t-438 -347t-605.5 -114.5q-212 0 -424 58.5t-357 193.5t-145 350z" />
<glyph unicode="6" horiz-adv-x="2404" d="M131 1311q0 276 89 526t256.5 443.5t403 304t513.5 110.5q295 0 553 -121.5t258 -386.5q0 -159 -103.5 -268t-261.5 -109q-96 0 -191.5 42.5t-156.5 117.5q127 74 127 176q0 98 -69.5 157.5t-172.5 59.5q-257 0 -380.5 -228t-123.5 -509q0 -25 4.5 -71.5t4.5 -79.5 q251 151 565 151q213 0 407.5 -90t313.5 -257.5t119 -385.5q0 -455 -289 -690.5t-756 -235.5q-299 0 -513 103.5t-345 287t-191.5 425.5t-60.5 528zM881 803q0 -199 80.5 -355.5t259.5 -156.5q176 0 260 150.5t84 344.5t-85 337t-263 143q-170 0 -253 -141t-83 -322z" />
<glyph unicode="7" horiz-adv-x="2404" d="M172 1888q0 19 6 43t15 49t16 48l311 643q45 106 127 106q56 0 78 -29q139 -114 246 -114q19 0 75 4t97 4h942h45q176 0 176 -115q0 -132 -238 -745q-46 -128 -116.5 -320t-159.5 -443.5t-149.5 -441t-102.5 -344.5q-37 -141 -48.5 -172t-48.5 -46t-132 -15h-537 q-106 0 -106 70q0 108 136 341.5t398.5 627.5t400.5 625.5t138 330.5q0 78 -152 78h-16h-520q-274 0 -409 -49.5t-231 -125.5t-155 -83q-31 0 -57 22t-29 51z" />
<glyph unicode="8" horiz-adv-x="2404" d="M119 762q0 435 471 668q-181 74 -295.5 215.5t-114.5 328.5q0 244 151 403.5t383 232.5t470 73q169 0 344.5 -37t327 -119t243.5 -216t92 -320q0 -203 -109.5 -330t-312.5 -219q512 -213 512 -664q0 -221 -98.5 -378.5t-264 -252.5t-363.5 -137.5t-408 -42.5 q-425 0 -726.5 196t-301.5 599zM831 729q0 -170 102.5 -294t266.5 -124q106 0 188 61t125 158t43 203q-5 99 -50 200t-123.5 171t-178.5 80q-103 0 -188 -71t-135 -178t-50 -206zM877 2048q0 -137 101.5 -281.5t233.5 -144.5q92 0 162.5 68.5t108 166t37.5 183.5 q0 142 -92.5 243t-231.5 101q-136 0 -227.5 -100t-91.5 -236z" />
<glyph unicode="9" horiz-adv-x="2404" d="M111 1831q0 206 83 369.5t229.5 274t328.5 165.5t383 55q362 0 620.5 -166.5t390 -455.5t131.5 -652q0 -307 -85 -570t-252.5 -462.5t-416.5 -310.5t-560 -111q-167 0 -347 50t-304 162.5t-124 287.5q0 149 109 248.5t260 99.5q200 0 315 -139q-93 -65 -98 -156 q0 -102 83 -165.5t187 -63.5q179 0 290.5 131t156.5 315.5t45 364.5q0 57 -4 86q-223 -160 -565 -160q-387 0 -621.5 210.5t-234.5 592.5zM852 1901q0 -197 87 -348.5t269 -151.5q172 0 248 146t76 337q0 183 -85 325t-255 142q-174 0 -257 -132t-83 -318z" />
<glyph unicode=":" horiz-adv-x="1061" d="M221 213q0 34 2 101t2 100q0 136 39.5 176.5t173.5 40.5h197q91 0 133.5 -15.5t57 -60t14.5 -137.5v-176q0 -116 -9 -160.5t-49.5 -63t-138.5 -18.5h-192q-146 0 -188 40t-42 173zM221 1405q0 32 2 100t2 101q0 100 16.5 144.5t58.5 58.5t138 14h197q91 0 133.5 -15.5 t57 -60t14.5 -137.5v-176q0 -116 -9 -160.5t-49.5 -63t-138.5 -18.5h-192q-146 0 -188 40t-42 173z" />
<glyph unicode=";" horiz-adv-x="1061" d="M221 180v283q0 83 14 120.5t53 50.5t122 13q56 0 139 4t110 4q100 0 142.5 -42.5t42.5 -174.5v-295q0 -274 -116 -472.5t-376 -198.5q-63 0 -97 19t-34 83q0 49 82.5 108.5t117 94t34.5 121.5q0 104 -95 110q-90 3 -114.5 39t-24.5 133zM221 1405q0 36 2 103t2 102 q0 143 38 178t175 35h197q91 0 133.5 -15.5t57 -60t14.5 -137.5v-176q0 -114 -9 -159t-49 -64t-139 -19h-192q-146 0 -188 40t-42 173z" />
<glyph unicode="&#x3c;" d="M160 1487v37l1728 1077v-266l-1007 -635l1007 -688v-709z" />
<glyph unicode="=" d="M29 1016v307h1986v-307h-1986zM29 1638v308h1986v-308h-1986z" />
<glyph unicode="&#x3e;" d="M160 303v266l1007 635l-1007 688v709l1728 -1184v-33z" />
<glyph unicode="?" horiz-adv-x="1683" d="M94 2138q0 189 102 333t267.5 221t351.5 77q218 0 395 -101t276 -279.5t99 -397.5q0 -221 -81 -369t-193 -251.5t-239.5 -229.5t-149.5 -252q-14 -77 -40 -110.5t-96 -33.5q-172 0 -172 242q0 117 52.5 216t164.5 252t167 260t55 239q0 99 -53.5 184.5t-147.5 93.5 q-91 0 -146 -65t-55 -156q0 -115 103 -127q0 -93 -79 -149t-175 -56q-178 0 -292 139t-114 320zM479 168v303q0 100 27.5 132t124.5 32h291q103 0 141.5 -27.5t38.5 -124.5v-315q0 -107 -30 -137.5t-138 -30.5h-295q-105 0 -132.5 31t-27.5 137z" />
<glyph unicode="@" horiz-adv-x="3211" d="M254 1319q0 398 194 734.5t528.5 530t731.5 193.5q247 0 472 -81t401.5 -233t278 -364t101.5 -465q0 -241 -113.5 -489t-316.5 -410t-450 -162q-110 0 -190 67t-113 179q-221 -258 -480 -258q-207 0 -332.5 170.5t-125.5 386.5q0 154 62 337t174 343t261.5 258t317.5 98 q258 0 393 -196l41 135q185 0 328 16l-308 -1028q-45 -172 -45 -200q0 -121 103 -127q151 0 289.5 141t223.5 340t85 354q0 293 -141.5 521.5t-384.5 353.5t-535 125q-329 0 -616 -170t-456 -458t-169 -618q0 -307 159.5 -583t428.5 -440t579 -164q299 0 523 119.5 t448 359.5l213 -12q-159 -216 -337 -363t-396 -226t-475 -79q-268 0 -513 109.5t-435 303t-297 440t-107 511.5zM1163 971q0 -97 50.5 -173.5t146.5 -76.5q152 0 260 152.5t170 338.5l156 476q12 36 12 61q0 95 -54.5 170.5t-146.5 75.5q-166 0 -302 -182t-214 -430.5 t-78 -411.5z" />
<glyph unicode="A" horiz-adv-x="3109" d="M-25 139q5 111 205 172q74 28 140.5 120.5t122 214.5t103 254t72.5 202q37 86 113 256t113 256q46 104 199 422.5t214 482.5q43 113 76.5 159t116.5 54q82 0 192 8t140 8q100 0 154.5 -49t107.5 -196l147 -365l156 -430l184 -471l185 -512q14 -34 45.5 -118t58.5 -141 t55 -89q30 -37 111.5 -74t120.5 -68.5t39 -103.5q0 -83 -59.5 -107t-157.5 -24h-828q-209 0 -209 135q0 91 86 119q55 24 82.5 40.5t32.5 49.5q0 227 -145 326.5t-379 99.5q-41 0 -128 4t-130 4q-210 0 -355 -106.5t-145 -311.5q0 -39 21 -57t73 -47t77.5 -54t25.5 -71 q0 -131 -193 -131h-663q-81 0 -114.5 30t-62.5 109zM1151 1208q0 -60 68 -83t239 -23h41q291 0 291 119q0 80 -94 321t-205 510q-91 -179 -215.5 -468t-124.5 -376z" />
<glyph unicode="B" horiz-adv-x="2888" d="M106 2601q0 73 57.5 115t135.5 49q251 20 627 20q415 0 704 -41q171 -29 330.5 -111t263 -216t103.5 -308q0 -182 -81 -288.5t-255 -182.5q171 -28 323.5 -94t269 -171.5t183.5 -252t67 -325.5q0 -331 -217 -507t-521.5 -232t-645.5 -56h-1098q-104 0 -170 26.5 t-71 112.5q0 67 33 90.5t115.5 58t105.5 72.5q41 80 41 537v217v803q0 29 2 95t2 102q0 157 -33 270q-13 42 -50 61t-99 37.5t-92 42.5t-30 76zM1085 696q0 -155 29 -262q22 -94 234 -94q190 0 333 61.5t224.5 190t81.5 317.5q0 164 -75 305t-208.5 223.5t-298.5 82.5 q-166 0 -254 -58q-61 -40 -61 -237q0 -131 -2.5 -286t-2.5 -243zM1085 2245q0 -37 2.5 -103.5t2.5 -122.5q0 -156 38.5 -200.5t104.5 -44.5q169 0 277 79.5t108 243.5q0 166 -85 267.5t-247 101.5q-120 0 -160.5 -57t-40.5 -164z" />
<glyph unicode="C" horiz-adv-x="3011" d="M94 1298q0 406 198 748t540 540.5t749 198.5q269 0 643 -114q25 -13 62 -13q34 0 56 17.5t53.5 55.5t55.5 56.5t56 18.5q43 0 76.5 -29t54 -68t41 -99.5t28.5 -82.5l148 -393q7 -28 21.5 -69t21 -69.5t6.5 -53.5q0 -60 -27.5 -104t-78.5 -44q-59 0 -156 97t-231.5 234 t-293 226.5t-352.5 89.5q-276 0 -467 -149.5t-283.5 -390t-92.5 -512.5q0 -301 112.5 -533t331.5 -359.5t522 -127.5q193 0 340.5 50.5t221.5 99t188.5 133.5t150.5 85q51 0 94 -37t46 -90q0 -122 -74.5 -212t-208.5 -193q-387 -275 -917 -275q-314 0 -606 88.5t-525 262.5 t-368.5 432.5t-135.5 584.5z" />
<glyph unicode="D" horiz-adv-x="3072" d="M98 139q0 70 34 94t114.5 55.5t105.5 71.5q16 32 22 82t8 108.5t3 88.5q8 320 8 475v610q-2 122 -2.5 216t-3 185t-6.5 152q-3 95 -39 137.5t-105.5 69.5t-95.5 46t-26 79q0 111 135 144q122 20 303 20q318 0 569 -16t499.5 -72t475.5 -170q257 -132 456.5 -336.5 t314 -463.5t114.5 -539q0 -241 -92.5 -449t-259.5 -361t-394 -247q-127 -52 -303 -78.5t-343.5 -33.5t-393.5 -7h-61h-795q-107 0 -172 26t-70 113zM1073 1618q0 -193 1 -314.5t2 -243.5t1 -315q0 -134 12 -202.5t68 -111t178 -42.5q272 0 458.5 116t280 324.5t93.5 481.5 q0 162 -37 319t-115.5 296t-195.5 237q-262 209 -521 209q-112 0 -160 -41t-55.5 -98.5t-9.5 -200.5v-414z" />
<glyph unicode="E" horiz-adv-x="2941" d="M98 139q0 72 32 93t114 53.5t108 74.5q16 32 22 82t8 108.5t3 88.5q8 320 8 475v504q0 143 -4 217q-1 60 -3.5 197t-9.5 223t-24 117q-26 36 -104 65t-114 55.5t-36 100.5q0 139 242 139h1294q116 0 192 12t140 58q97 57 131 57q64 0 119 -78l369 -524q36 -52 36 -103 q0 -49 -29.5 -87.5t-76.5 -38.5q-34 0 -149 77.5t-219.5 136.5t-291 112.5t-421.5 53.5q-144 0 -215 -21.5t-100 -78t-29 -166.5v-78q0 -131 17 -194t58 -86t125 -23q94 0 146 14.5t96 71.5q17 22 30.5 39t35 39.5t41 33.5t40.5 11q77 0 131 -86l340 -508q23 -27 37 -78 q0 -61 -33.5 -108t-93.5 -47q-57 0 -194.5 88.5t-245.5 139t-260 50.5q-221 0 -258 -102q-25 -74 -25 -201t8 -389q3 -142 24 -209.5t84 -99t196 -31.5q75 0 227 2t227 2q229 7 392 62.5t291 144.5t192 137.5t108 48.5q47 0 81 -37t34 -90q0 -52 -25 -106l-352 -610 q-48 -90 -123 -90q-59 0 -132 60t-109 71q-70 16 -218 16h-1642q-107 0 -172 26t-70 113z" />
<glyph unicode="F" horiz-adv-x="2798" d="M98 139q0 67 33 90.5t115.5 58t105.5 72.5q41 78 41 537v217v528q0 396 -20 672q-5 57 -40.5 84t-102.5 56t-99.5 59t-32.5 92q0 80 66 103.5t168 23.5h1499q169 0 266 70q86 65 152 65q93 0 159 -110l357 -562q35 -49 45 -90q0 -147 -107 -147q-47 0 -131 61 q-201 157 -364 236t-338 106t-445 27q-189 0 -278 -49q-74 -54 -74 -209q0 -22 2 -61t2 -54q0 -103 16.5 -153t65 -69t148.5 -19q228 0 331 94q58 49 115 49q80 0 139 -98l267 -451q28 -86 28 -106q0 -55 -30.5 -93.5t-79.5 -38.5q-65 0 -217.5 99t-250.5 147.5t-249 48.5 q-144 0 -200.5 -22t-69.5 -79.5t-13 -209.5v-680q0 -71 65.5 -107t131 -72.5t65.5 -107.5q0 -147 -249 -147h-750q-107 0 -172 26t-70 113z" />
<glyph unicode="G" horiz-adv-x="3232" d="M94 1376q0 302 138.5 560.5t374 443.5t521.5 283t576 98q101 0 285.5 -20.5t275.5 -20.5q37 0 95.5 59.5t105.5 59.5q109 0 160 -152l237 -565q0 -1 14.5 -44t14.5 -67q0 -45 -26.5 -71.5t-67.5 -26.5q-44 0 -235.5 144.5t-383 243.5t-414.5 99q-202 0 -361 -76.5 t-269 -213t-166 -314t-56 -371.5q0 -294 125.5 -530t352.5 -369t522 -133q140 0 211 39t94 107.5t23 177.5q0 45 -2.5 103.5t-2.5 97.5q0 104 -30 147.5t-91 71.5t-84.5 47.5t-23.5 85.5q0 151 229 151h648q107 0 169.5 -24.5t67.5 -110.5q0 -116 -119 -147 q-73 -16 -91.5 -67t-18.5 -150v-406q0 -182 86 -217q74 -27 114.5 -53.5t40.5 -89.5q0 -102 -60.5 -129t-180.5 -27h-828q-253 0 -486 22t-456 84t-409 173q-193 114 -333 285.5t-213 379.5t-73 432z" />
<glyph unicode="H" horiz-adv-x="3297" d="M98 139q0 70 34 94t114.5 55.5t105.5 71.5q16 32 22 82t8 108.5t3 88.5q8 320 8 475v504q0 155 -8 475q-1 33 -3 90.5t-8.5 107.5t-21.5 81q-26 36 -104 65t-114 55.5t-36 100.5q0 139 242 139h811q200 0 209 -135q0 -64 -32.5 -94t-95 -49t-94 -37.5t-36.5 -65.5 q-12 -70 -12 -217v-176q0 -152 12 -212.5t65.5 -86t184.5 -25.5h577q138 0 201 29.5t82.5 100.5t19.5 223l-4 233q0 112 -35 159t-103.5 71.5t-98 47t-29.5 91.5q0 68 57 105.5t131 37.5h811h62q180 0 180 -131q0 -107 -131 -147q-99 -37 -125.5 -89.5t-26.5 -214.5 q0 -86 -4 -260t-4 -260v-516q0 -91 4 -276t4 -277q0 -138 33 -201q25 -40 104.5 -71.5t112.5 -55t33 -94.5q0 -86 -67.5 -112.5t-174.5 -26.5h-794q-209 0 -209 131q0 55 30.5 87t93.5 68t96.5 68.5t37.5 91.5q16 213 16 480q0 132 -15 198.5t-75.5 102t-195.5 35.5 q-304 8 -459 8q-227 0 -316 -37q-94 -39 -94 -246q0 -176 8 -520q0 -69 31.5 -103t93.5 -62.5t95.5 -58t37.5 -91.5q0 -152 -180 -152h-823q-107 0 -172 26t-70 113z" />
<glyph unicode="I" horiz-adv-x="1462" d="M102 139q0 70 34 94t114.5 55.5t105.5 71.5q16 32 22 82t8 108.5t3 88.5q8 320 8 475v504q0 155 -8 475q-1 33 -3 90.5t-8.5 107.5t-21.5 81q-26 36 -104 65t-114 55.5t-36 100.5q0 139 242 139h786q107 0 172 -26.5t70 -112.5q0 -110 -135 -156q-84 -25 -114.5 -70.5 t-33 -115.5t-4.5 -158q-8 -320 -8 -475v-504q0 -91 6.5 -264.5t6.5 -288.5q0 -140 32 -201q24 -41 103.5 -72.5t113 -55t33.5 -93.5q0 -86 -67.5 -112.5t-174.5 -26.5h-786q-106 0 -170.5 26t-71.5 113z" />
<glyph unicode="J" horiz-adv-x="2195" d="M8 758q0 229 147 407t369 178q174 0 284 -104.5t110 -275.5q0 -135 -46 -182.5t-134.5 -61.5t-128.5 -39.5t-40 -122.5q0 -103 76 -172.5t182 -69.5q324 0 324 541v156v606q0 92 -4 277t-4 276q0 124 -26.5 181t-125.5 85q-131 52 -131 156q0 86 67.5 112.5t174.5 26.5 h782q108 0 173.5 -26.5t68.5 -112.5q0 -74 -32 -95t-114 -51.5t-104 -74.5q-33 -57 -33 -201q0 -91 -4 -276t-4 -277v-606v-246q-7 -196 -74 -352.5t-184.5 -262t-282 -161.5t-360.5 -56q-244 0 -456.5 100.5t-341 288.5t-128.5 435z" />
<glyph unicode="K" horiz-adv-x="2933" d="M98 139q0 67 33 90.5t115.5 58t105.5 72.5q41 78 41 537v217v504q0 60 -2 176t-2 176q0 341 -37 402q-24 33 -102 63.5t-115 58.5t-37 99q0 139 242 139h754q111 0 181 -23.5t73 -111.5q0 -109 -131 -152q-81 -24 -100 -83t-23 -175q-4 -147 -4 -438l499 426 q148 128 164 217q0 43 -23 63t-68 39t-67 42.5t-22 76.5q0 119 156 119h675q180 0 189 -111q0 -68 -32 -97.5t-111 -55t-136.5 -52t-109.5 -89.5q-44 -48 -93.5 -101.5t-91 -108t-45.5 -89.5q0 -30 18.5 -72.5t22.5 -59.5l602 -1343q55 -126 107 -197q22 -34 88 -73 t95.5 -66t29.5 -86q0 -80 -40 -105.5t-124 -25.5h-844q-179 0 -184 119q0 45 26 75.5t78.5 66.5t76.5 61.5t24 62.5q0 105 -99 291l-434 917l-340 -299q0 -56 -6 -225t-6 -266q0 -310 53 -443q24 -41 103.5 -72.5t113 -55t33.5 -93.5q0 -139 -238 -139h-790q-107 0 -172 26 t-70 113z" />
<glyph unicode="L" horiz-adv-x="2712" d="M98 139q0 72 32 93t114 53.5t108 74.5q16 32 22 82t8 108.5t3 88.5q8 320 8 475v520q0 681 -41 754q-28 36 -106.5 66.5t-113 56.5t-34.5 98q0 123 209 123h33h782h62q84 0 132 -23t48 -100q0 -74 -32 -95.5t-112.5 -51.5t-105.5 -74q-33 -56 -33 -201q0 -92 -4 -276 t-4 -277v-639q0 -13 -2 -77t-2 -111q0 -207 19 -287t95.5 -109.5t270.5 -29.5q284 0 463 48.5t252.5 96.5t191 137t191.5 99q50 0 88.5 -28.5t38.5 -78.5q0 -53 -41 -110l-361 -586q-70 -98 -135 -98l-4 -4q-47 5 -76 21.5t-44.5 37t-26.5 35.5q-49 49 -213 49h-58h-1380 q-107 0 -172 26t-70 113z" />
<glyph unicode="M" horiz-adv-x="4182" d="M-4 147q0 44 88.5 99t142 103t88.5 171l471 1610q33 111 33 180q0 50 -28.5 79.5t-84 61t-82 58.5t-26.5 71q0 60 59.5 106t169.5 46h717q178 0 189 -123q0 -50 -24.5 -80t-72.5 -60.5t-72 -53.5t-24 -64q0 -59 45 -143l479 -942q9 -18 21 -43.5t28 -42.5t37 -17 q18 0 33.5 17t31.5 48.5t21 41.5l455 938q37 76 37 127q0 47 -26 71t-82.5 52.5t-84.5 59.5t-28 87q0 67 55 97t129 30h741q89 0 142.5 -23.5t58.5 -99.5q0 -54 -29.5 -84.5t-86.5 -62.5t-87 -61.5t-30 -78.5q0 -31 4.5 -55.5t14 -66t13.5 -62.5l439 -1606 q30 -108 67 -154.5t133 -86.5q127 -53 127 -148q0 -71 -49.5 -107t-122.5 -36h-929q-68 0 -114 39t-46 104q0 99 119 144q106 32 106 114q0 30 -45 213l-242 988l-712 -1397q-21 -39 -46 -85.5t-56 -79t-70 -32.5q-34 0 -61 17.5t-49 47.5t-38 63t-28 57l-697 1462 l-348 -1123q-29 -96 -29 -163q0 -41 24 -65t71 -52t72.5 -55.5t25.5 -73.5q0 -123 -176 -123h-635q-55 0 -89 35.5t-34 87.5q-4 8 -4 24z" />
<glyph unicode="N" horiz-adv-x="3138" d="M98 135q0 68 34.5 93t114.5 57.5t105 70.5q41 78 41 537v217v508q0 143 -4 213q-1 59 -3.5 195t-9.5 224.5t-24 116.5q-25 36 -104 69.5t-114.5 60t-35.5 96.5q0 85 68 110t174 25h627q111 0 168 -28.5t143 -114.5l930 -934q74 -78 114 -78q45 5 45 86q0 84 2.5 234.5 t2.5 277.5q0 167 -45 211t-141.5 92t-96.5 131q0 123 176 123h565q109 0 173 -24.5t69 -110.5q0 -71 -29.5 -91t-113.5 -54.5t-107 -80.5q-45 -69 -45 -483q0 -62 2 -154t2 -112v-1352q0 -30 2 -94t2 -94q0 -69 -78 -78q-6 0 -59 -4t-88 -4q-187 0 -193 78q0 176 -42 290.5 t-158 233.5l-1188 1253q-8 7 -29 28t-36.5 31.5t-32.5 10.5q-54 0 -54 -102q0 -26 -2 -77t-2 -75v-553q0 -52 -6 -186t-6 -207q0 -233 53 -361q26 -40 103.5 -70t112 -54.5t34.5 -96.5q0 -85 -67.5 -110t-174.5 -25h-532q-109 0 -173 24.5t-69 110.5z" />
<glyph unicode="O" horiz-adv-x="3273" d="M94 1192q0 433 200 800.5t554 580t794 212.5q302 0 582 -119t496 -330t337 -487t121 -579q0 -322 -119.5 -572.5t-331 -416.5t-488.5 -250t-588 -84q-718 0 -1106 303q-214 169 -332.5 417.5t-118.5 524.5zM934 1298q0 -249 64.5 -472t221.5 -367t414 -144 q364 0 538.5 275t174.5 659q0 182 -35.5 386.5t-115.5 392t-219 309t-335 121.5q-262 0 -420.5 -186t-223 -451t-64.5 -523z" />
<glyph unicode="P" horiz-adv-x="2830" d="M98 139q0 67 33 90.5t115.5 58t105.5 72.5q41 78 41 537v217v918q0 241 -33 327q-18 46 -104.5 85.5t-118 60.5t-31.5 88q0 160 394 160h86q733 0 1089 -58q291 -49 542 -183.5t408 -357.5t168 -520q0 -344 -184 -528t-461 -243.5t-628 -59.5h-119q-164 0 -223 -9.5 t-73.5 -39t-14.5 -115.5v-111q0 -214 122 -249q144 -41 144 -140q0 -91 -63.5 -115t-174.5 -24h-778q-107 0 -172 26t-70 113zM1069 1589q0 -206 25 -315q30 -127 295 -127q254 0 426 157.5t172 407.5q0 183 -93.5 341t-251 252.5t-339.5 94.5q-112 0 -160 -46t-56 -109 t-10 -205q-8 -304 -8 -451z" />
<glyph unicode="Q" horiz-adv-x="3301" d="M94 1208q0 312 118.5 598.5t331.5 506.5t495 344t599 124q312 0 595 -115t504.5 -322.5t345.5 -481.5t124 -580q0 -366 -151 -632t-463 -457q81 -81 140 -122.5t130 -41.5q47 0 120 42.5t105 47.5q36 0 67.5 -20.5t31.5 -57.5q0 -38 -70 -127l-287 -373q-49 -65 -118 -65 q-194 0 -358.5 153.5t-305.5 374.5q-237 -65 -504 -65q-287 0 -548.5 84t-466.5 249t-320 402.5t-115 533.5zM946 1319q0 -193 31.5 -368t109.5 -322t215.5 -234.5t339.5 -87.5q103 0 205 33q-153 258 -348 258q-55 0 -115 -33t-77 -33q-1 0 -5.5 2.5t-7.5 2.5 q-32 13 -32 73q0 64 46.5 144t133.5 136t205 56q187 0 326 -81.5t276 -241.5q75 126 96.5 271.5t21.5 342.5q0 259 -67.5 542.5t-231 483t-430.5 199.5q-261 0 -416 -182.5t-215.5 -442t-60.5 -518.5z" />
<glyph unicode="R" horiz-adv-x="3125" d="M98 139q0 67 33 90.5t115.5 58t105.5 72.5q41 78 41 537v217v504q0 60 -2 176t-2 176q0 341 -37 402q-24 33 -102 63.5t-115 58.5t-37 99q0 139 242 139h827q383 0 689 -50.5t561 -195.5q165 -93 290 -220t194 -285.5t69 -342.5q0 -536 -656 -716l402 -459 q99 -116 196 -152q84 -32 128 -63.5t44 -100.5q0 -147 -184 -147h-926q-165 0 -176 127q0 47 26.5 93.5t67.5 58.5q103 33 103 65q0 60 -62 107l-319 327q-143 -20 -258 -20q-116 0 -266 20q-13 -124 -13 -262q0 -193 94 -217q92 -23 141 -51t52 -101q0 -147 -213 -147h-811 q-107 0 -172 26t-70 113zM1073 2032l4 -541q0 -164 30 -246t109.5 -116.5t241.5 -34.5q195 0 353 72.5t248.5 213.5t90.5 336q0 188 -93.5 348t-253.5 254.5t-349 94.5q-204 0 -292.5 -85.5t-88.5 -279.5v-16z" />
<glyph unicode="S" horiz-adv-x="2953" d="M-8 774l4 12q0 4 -1.5 10.5t-2.5 10.5q0 42 26 74t68 32q47 0 234 -124.5t327 -205.5t392.5 -160t553.5 -79q188 0 348 84t160 256t-152.5 269.5t-412.5 197.5q-457 181 -651 274q-184 85 -320.5 181t-219.5 233t-83 324q0 204 117 345.5t301.5 209t384.5 67.5 q225 0 373 -24q26 -5 89.5 -19t114.5 -22t91 -8q49 0 116 61t117 61q78 0 135 -81l418 -558q41 -55 41 -102q0 -42 -32 -70t-74 -28q-73 0 -307 145t-407.5 227t-387.5 82q-104 0 -185.5 -43.5t-93.5 -136.5q0 -139 301 -260.5t655 -256t598 -353t244 -576.5 q0 -290 -146 -486.5t-385.5 -291t-524.5 -94.5q-329 0 -656 69q-84 21 -151.5 38.5t-139 32.5t-118.5 15q-38 0 -63.5 -19.5t-55.5 -57.5t-54.5 -60t-60.5 -26q-100 0 -168 118l-336 652q-16 39 -20 61z" />
<glyph unicode="T" horiz-adv-x="3015" d="M0 1995q0 88 41 168l348 602q50 90 119 90q79 0 127 -53q84 -70 242 -70h1261q217 0 307 61q92 62 127 62q85 0 152 -123l278 -586q23 -50 33 -90q0 -143 -102 -143q-57 0 -138 72t-185 166.5t-237 157.5t-305 63q-108 0 -155 -28t-58.5 -80.5t-11.5 -166.5v-20v-963 q0 -31 -2 -150t-2 -194q0 -315 45 -410q24 -40 105.5 -72t115 -55t33.5 -94q0 -86 -67.5 -112.5t-174.5 -26.5h-786q-107 0 -173 26t-69 113q0 66 31.5 87t114.5 55.5t104 78.5q41 73 41 533v221v1000q0 119 -14.5 171.5t-64.5 73.5t-167 21q-140 0 -259.5 -62.5t-225 -159 t-186.5 -169t-131 -72.5q-99 0 -111 78z" />
<glyph unicode="U" horiz-adv-x="2814" d="M123 2576q0 71 51.5 111.5t124.5 40.5h827q101 0 163.5 -26.5t62.5 -112.5q0 -113 -131 -135q-97 -30 -132 -81.5t-39.5 -132.5t-9.5 -184l-49 -909q-8 -188 -8 -275q0 -573 586 -573q288 0 453 129t165 408q0 90 -8 262l-53 872q-10 288 -49 406q-14 38 -43.5 55 t-91.5 42.5t-90.5 53.5t-28.5 78q0 59 48.5 91t110.5 32h598q164 0 164 -123q0 -69 -28.5 -95t-87 -41t-90 -40.5t-35.5 -93.5q0 -13 -2 -35t-2 -35q0 -20 1.5 -48t5 -63t5.5 -59.5t4 -62.5l74 -955q8 -82 8 -246q0 -282 -81.5 -457t-231.5 -266t-355 -124t-491 -33 q-312 0 -575 71t-430 254.5t-167 497.5q0 54 8.5 160.5t8.5 171.5l82 1032q0 15 4 62t4 69q0 82 -33 119t-96.5 62.5t-92 47.5t-28.5 78z" />
<glyph unicode="V" horiz-adv-x="3002" d="M-86 2601q0 65 47.5 98t116.5 33h930q180 0 180 -135q0 -56 -28.5 -87t-83.5 -60t-82 -54.5t-27 -73.5q0 -21 13.5 -59t14.5 -43l611 -1454l585 1454l14.5 43.5t13.5 45.5t5 38q0 55 -24 77.5t-72 41.5t-72 44.5t-24 86.5q0 63 45 99t110 36h742q159 0 159 -127 q0 -61 -34.5 -93.5t-104.5 -66.5q-120 -50 -184 -204l-864 -2102q-31 -75 -55 -105.5t-85 -33.5h-446q-109 0 -142 18.5t-75 116.5l-856 2085q-44 98 -83.5 141.5t-125.5 79.5q-119 47 -119 160z" />
<glyph unicode="W" horiz-adv-x="4235" d="M-70 2589q0 74 54.5 108.5t134.5 34.5h823q96 0 154 -26.5t63 -108.5q0 -50 -27.5 -75.5t-81.5 -50t-81 -48t-27 -68.5q0 -20 11.5 -49.5t13.5 -44.5l581 -1368l291 807q21 63 21 90q0 50 -32 75t-94 50.5t-91 50.5t-29 74q0 147 221 147h721q213 0 213 -135 q0 -61 -30 -91t-89.5 -53t-87 -41t-27.5 -57q0 -55 41 -139l349 -778l565 1331q33 91 33 119q0 54 -52 91.5t-104.5 75t-52.5 91.5q0 58 49.5 94.5t109.5 36.5h680q166 0 176 -123q0 -66 -35 -100t-108 -64q-98 -35 -164 -188l-913 -2142q-25 -64 -43.5 -86t-75.5 -25 q-49 -4 -151 -4h-156q-77 0 -101 16.5t-59 94.5l-422 1011l-356 -970q-34 -98 -66 -125t-131 -27q-41 0 -110 -4t-99 -4q-91 0 -149 30.5t-96 116.5l-881 2102q-46 110 -93.5 157t-100.5 67t-71 39t-18 85z" />
<glyph unicode="X" horiz-adv-x="3006" d="M-8 131q4 55 64 89t162 87.5t167 130.5l815 942l-627 877q-110 145 -266 192q-147 40 -147 148q0 56 41 95.5t98 39.5h1094q163 0 163 -127q0 -53 -27.5 -79.5t-81.5 -49t-81 -42t-27 -58.5q0 -14 45 -107l308 -426l393 430q61 74 61 115q0 2 -1.5 9t-2.5 11 q-8 38 -68 73t-80 51.5t-20 72.5q0 60 43.5 93.5t104.5 33.5h729q164 0 164 -127q0 -84 -82 -123q-126 -62 -187.5 -97.5t-115.5 -94.5l-688 -783l700 -999q102 -147 221 -201q93 -48 128.5 -74t35.5 -90q0 -68 -48 -105.5t-120 -37.5h-995q-160 0 -160 143q1 60 34 85.5 t102 60.5t81 67q0 2 2 13t2 12q0 65 -78 151l-377 500l-483 -553q-69 -79 -69 -127q0 -37 20 -55t66 -44t70 -50t24 -64q0 -67 -44 -103t-112 -36h-795q-63 0 -107 31.5t-44 91.5z" />
<glyph unicode="Y" horiz-adv-x="2916" d="M-74 2617q10 115 176 115h988q147 0 147 -127q0 -51 -24.5 -78t-70.5 -48t-67.5 -36.5t-21.5 -46.5q0 -38 19.5 -68.5t55.5 -71t48 -61.5l454 -593l492 679q49 76 49 127q-4 34 -63.5 69t-82 55t-22.5 77q0 52 45 87.5t98 35.5h688q177 0 177 -119q0 -63 -33 -92.5 t-99 -50.5q-99 -34 -172 -131l-720 -991q-39 -49 -64.5 -81.5t-36 -84t-10.5 -162.5q0 -48 -2 -150t-2 -153q0 -209 24 -336q14 -54 81.5 -84t122 -59t59.5 -95q0 -143 -209 -143h-885q-63 0 -103 37.5t-40 101.5q0 65 31 90.5t101.5 56t106 73t35.5 133.5q0 40 2 122t2 123 q0 286 -119 439l-786 1077q-64 88 -104 125t-121 67q-140 58 -140 160z" />
<glyph unicode="Z" horiz-adv-x="2974" d="M-37 82l4 8q0 33 62 115l1646 2023q66 86 66 103l-4 16q-20 25 -86 25q-65 0 -196 2t-198 2q-253 0 -415 -52.5t-271.5 -145t-173 -148.5t-139.5 -72q-119 0 -119 127q7 18 33 61l377 615q50 85 110 90q56 0 107 -58q65 -61 238 -61h1572h86q175 0 189 -57q0 -5 2 -11 t2 -10q0 -37 -62 -119l-1585 -1962q-5 -7 -34 -38t-44.5 -54.5t-15.5 -42.5q0 -57 139 -57q439 0 709 29q151 17 289 78t264 147t201.5 139t105.5 53q39 0 64.5 -29.5t25.5 -68.5q0 -44 -45 -123l-344 -565q-91 -168 -168 -168l-4 -4q-49 6 -144.5 63t-195.5 64l-176 4 h-1429h-254q-181 0 -189 82z" />
<glyph unicode="[" horiz-adv-x="1495" d="M438 -401v2904q0 107 12 150.5t55.5 61t145.5 17.5h594q82 0 110.5 -21t28.5 -94q0 -74 -35.5 -98.5t-103.5 -24.5q-17 0 -46.5 2.5t-55.5 2.5q-139 0 -139 -119v-78v-2503v-73q0 -75 46 -94.5t141.5 -22.5t144 -25t48.5 -100q0 -73 -28.5 -94t-110.5 -21h-594 q-108 0 -150 15.5t-52.5 57.5t-10.5 157z" />
<glyph unicode="\" horiz-adv-x="1843" d="M135 2654q0 75 56.5 134t136.5 59q101 0 158 -91.5t104 -232.5l1192 -2941q16 -47 33.5 -96t28.5 -92t11 -86q0 -84 -48.5 -134.5t-131.5 -50.5q-67 0 -117 50t-81.5 115t-67.5 155l-1221 3015q-11 32 -25 71t-21 69t-7 56z" />
<glyph unicode="]" horiz-adv-x="1495" d="M111 -516q0 84 45.5 101.5t143 20.5t147 38.5t49.5 154.5v2503v78q0 75 -48 93.5t-145.5 21.5t-144.5 24t-47 98q0 73 28.5 94t110.5 21h594q108 0 150 -15.5t52.5 -57.5t10.5 -156v-2904q0 -108 -12 -151.5t-55.5 -61t-145.5 -17.5h-594q-82 0 -110.5 21t-28.5 94z" />
<glyph unicode="^" d="M-127 1139l1184 1728h37l1077 -1728h-266l-635 1007l-688 -1007h-709z" />
<glyph unicode="_" d="M-16 -377h2084v-315h-2084v315z" />
<glyph unicode="`" d="M655 2671q0 86 164 86h311q103 0 141 -28t64 -128q22 -69 44 -136t38.5 -131.5t16.5 -105.5q0 -135 -82 -135q-43 0 -135 61l-455 357q-107 78 -107 160z" />
<glyph unicode="a" horiz-adv-x="2257" d="M94 512q0 204 137 347.5t341.5 213.5t402.5 70q86 0 258 -8q-71 193 -158.5 299t-255.5 106q-108 0 -177.5 -32t-161 -90t-136.5 -58q-35 0 -61 22t-29 56q0 129 130.5 226t309.5 148.5t301 51.5q340 0 513.5 -173t277.5 -524l192 -626q30 -98 91 -180t139 -82 q45 0 94 49q61 -61 61 -140q0 -121 -125 -171t-268 -50q-151 0 -257.5 55.5t-192.5 178.5q-367 -234 -746 -234q-172 0 -327.5 61.5t-254 185t-98.5 298.5zM696 610q0 -148 114.5 -242t262.5 -94q120 0 224 46.5t104 150.5q0 108 -90 307q-50 131 -230 131 q-150 0 -267.5 -80t-117.5 -219z" />
<glyph unicode="b" horiz-adv-x="2257" d="M16 2376q0 74 74 106l512 246q67 37 115 37q69 0 69 -160v-913q257 127 467 127q193 0 363 -82t296.5 -223.5t196.5 -320.5t70 -366q0 -221 -98.5 -414.5t-278 -309t-405.5 -115.5q-119 0 -239 37.5t-236.5 90t-135.5 52.5q-51 0 -94 -22t-115 -71t-119.5 -74t-101.5 -30 q-114 0 -114 156v1667q0 165 -13 320q-4 59 -34 94.5t-81.5 64.5t-74.5 48t-23 55zM786 987q0 -643 361 -643q155 0 269 103.5t174.5 259t60.5 305.5q0 136 -48.5 258.5t-145.5 201t-232 84.5q-439 0 -439 -569z" />
<glyph unicode="c" horiz-adv-x="1995" d="M78 889q0 287 157.5 507t415 339.5t537.5 119.5q344 0 618 -143q64 -30 95.5 -52.5t31.5 -66.5q0 -50 -20 -86l-176 -372q-42 -82 -90 -82q-42 0 -81 88.5t-92 209.5t-138 200t-222 79q-215 0 -310 -201.5t-95 -437.5q0 -181 65 -350t195.5 -276t316.5 -107q154 0 268 71 t226.5 176.5t148.5 108.5q34 0 62.5 -18t31.5 -51q0 -87 -47 -153.5t-133 -145.5q-299 -275 -721 -275q-280 0 -520 108.5t-382 317t-142 492.5z" />
<glyph unicode="d" horiz-adv-x="2331" d="M82 844q0 187 68.5 364.5t194 320.5t294.5 224.5t360 81.5q236 0 500 -139q0 233 -4 348q-9 132 -47 166.5t-112 65t-74 91.5q0 75 106 123l487 226q67 28 82 32q107 0 107 -143q0 -88 2 -262t2 -262v-221v-820q0 -61 2 -183t2 -181q5 -150 24 -238t99 -131 q54 -24 84 -47.5t35 -71.5q0 -112 -123 -135l-533 -78h-57q-82 6 -82 160v115q-146 -139 -290 -211t-324 -72q-253 0 -434.5 112.5t-275 311.5t-93.5 453zM631 1077q0 -162 62.5 -325.5t186 -271t291.5 -107.5q178 0 251 144t73 339v53q0 279 -98.5 477.5t-347.5 198.5 q-128 0 -223.5 -73.5t-145 -190t-49.5 -244.5z" />
<glyph unicode="e" horiz-adv-x="2052" d="M78 918q0 250 136.5 464.5t360.5 341.5t474 127q139 0 272 -37t249.5 -111.5t203.5 -178.5q6 -9 55.5 -77.5t83 -129t33.5 -96.5q0 -29 -86.5 -75.5t-167.5 -76.5l-881 -393q74 -174 217.5 -273.5t331.5 -99.5q149 0 266 63t225.5 153t130.5 91q41 0 72 -26t31 -68 q0 -102 -193 -270q-362 -275 -843 -275q-273 0 -496 119t-349 335.5t-126 492.5zM618 1266q0 -99 30.5 -236t96.5 -137q26 0 66 20l377 168q22 11 45.5 22t41 25t23.5 31q0 2 2.5 11.5t2.5 13.5q0 84 -64 178.5t-158.5 158.5t-179.5 64q-124 0 -203.5 -97t-79.5 -222z" />
<glyph unicode="f" horiz-adv-x="1245" d="M37 1704q0 74 106 74h185q-65 96 -119 174t-88.5 157t-34.5 168q0 229 199 360.5t440 131.5q200 0 378.5 -97t178.5 -280q0 -124 -91 -207.5t-216 -83.5q-87 0 -169.5 44.5t-125.5 119.5q90 32 90 90q0 45 -37 69.5t-86 24.5q-53 0 -95 -36t-48 -91q0 -58 41.5 -116 t131 -150.5t138.5 -153t66 -124.5h274q74 0 74 -45q0 -267 -127 -275q-37 0 -111 -4t-110 -4v-602v-86q0 -248 28 -385q12 -43 36.5 -65t79.5 -56t80 -63t25 -78q0 -115 -188 -115h-668q-187 0 -196 115q0 54 26.5 77t87.5 56t82 63q54 74 54 406v405q0 196 -17 340 q-62 0 -184 8q-35 3 -54 27.5t-26 61.5t-8 82.5t-2 62.5z" />
<glyph unicode="g" horiz-adv-x="2175" d="M25 -258q0 111 84.5 174t226.5 121q-138 51 -218.5 104.5t-80.5 149.5q0 81 75 163.5t178 161t103 84.5q0 21 -24 33q-118 93 -174 189.5t-56 236.5q0 238 162.5 391t401.5 219t468 66q97 234 229.5 369t348.5 135q117 0 208 -61t91 -173q0 -94 -60.5 -151.5 t-148.5 -57.5q-41 0 -121 18.5t-125 18.5q-129 0 -155 -127q253 -75 421.5 -218t168.5 -371q0 -222 -137 -369.5t-345.5 -217t-427.5 -69.5q-75 0 -221 16.5t-229 16.5q-74 0 -86 -62q0 -38 25 -56.5t61 -24.5t77 -13q190 -31 586 -82q73 -8 258 -31.5t321 -68.5t229 -137.5 t93 -237.5q0 -553 -1056 -553q-337 0 -744 92.5t-407 321.5zM504 -193q0 -208 758 -208h98q70 0 160 30t90 88q0 21 -4 25q-8 25 -33 40.5t-53.5 21.5t-63.5 10t-55 6l-537 78q-115 20 -205 20q-55 0 -102 -29.5t-53 -81.5zM795 1196q0 -170 65 -290t221 -120q295 0 295 443 q0 405 -303 405q-278 0 -278 -438z" />
<glyph unicode="h" horiz-adv-x="2298" d="M57 115q0 73 79 111.5t127 110.5t48 306q0 45 -2 115t-2 90v942v90q0 174 -33 218.5t-99.5 65.5t-84.5 85q0 97 82 139l504 319q63 41 94 41q45 0 65.5 -55t20.5 -113v-999q127 119 237 182.5t246 63.5q292 0 435 -299q122 -265 258 -856q43 -192 76 -280t124 -138 q70 -42 100.5 -67.5t30.5 -75.5q0 -111 -131 -111h-733q-184 0 -184 115q0 42 23.5 67.5t78 62.5t79 65.5t24.5 74.5q-15 240 -156 705q-32 110 -54 170t-69 115t-123 59q-144 0 -203 -118.5t-59 -283.5v-262q0 -242 25 -393q8 -38 36 -63t80 -56.5t78.5 -59.5t26.5 -71 q0 -127 -193 -127h-655q-187 0 -197 115z" />
<glyph unicode="i" horiz-adv-x="1147" d="M53 115q0 54 27 77.5t88 56t82 62.5q53 68 53 377v451q0 162 -35 197t-102.5 54.5t-67.5 88.5t115 123l487 213q29 16 74 24q78 0 78 -135v-856v-152q0 -193 25 -319q10 -40 38 -64t80.5 -56.5t77.5 -59.5t25 -70q0 -127 -193 -127h-655q-188 0 -197 115zM176 2253 q0 96 80.5 171.5t195 117.5t203.5 43q79 0 138 -48.5t59 -123.5q0 -100 -78 -178.5t-192.5 -122.5t-208.5 -44q-79 0 -138 55.5t-59 129.5z" />
<glyph unicode="j" horiz-adv-x="1102" d="M-57 -295q0 119 53 119l4 4q12 0 71 -47t101 -47q168 0 168 348q0 31 -2 81t-2 62v819v86q0 146 -42.5 192t-117 78t-74.5 87q0 29 22 60.5t48 41.5l541 230q68 23 78 24q90 0 90 -151v-45v-1745q0 -268 -115.5 -404.5t-380.5 -136.5q-186 0 -314 83.5t-128 260.5z M225 2245q0 96 77.5 179t188.5 132t205 49q83 0 144 -46t61 -126q0 -98 -82 -180t-196.5 -129t-208.5 -47q-82 0 -135.5 48t-53.5 120z" />
<glyph unicode="k" horiz-adv-x="2208" d="M37 2286q0 66 94 127l553 294q49 33 94 33q66 0 66 -127v-1507l295 311q57 60 57 111q0 27 -16.5 38.5t-59 30.5t-63.5 41t-21 62q0 49 39.5 79.5t91.5 30.5h635q159 0 164 -110q0 -106 -127 -144q-121 -36 -201.5 -83.5t-146.5 -137.5l467 -905q66 -119 176 -160 q142 -49 152 -143q0 -65 -54.5 -96t-126.5 -31h-389q-68 4 -109.5 14t-59 26t-33.5 55t-23 52l-303 598q-24 44 -42.5 80t-40.5 69.5t-44 55.5l-217 -250v-57q0 -180 20 -270q15 -43 43 -67t80.5 -54t77.5 -56t25 -69q0 -127 -185 -127h-655q-188 0 -197 115q0 54 27 77.5 t88 56t82 62.5q53 73 53 406v131v954v107q0 106 -8 155t-43.5 71t-96.5 40.5t-89.5 40.5t-28.5 70z" />
<glyph unicode="l" horiz-adv-x="1151" d="M57 115q0 73 79 111.5t127 110.5t48 306q0 45 -2 115t-2 90v930v110q0 115 -16 168q-9 40 -36.5 59.5t-83 45t-80.5 48t-25 64.5q0 83 139 148l487 274q11 2 38.5 13.5t39.5 11.5q86 0 86 -193v-1679q0 -316 25 -471q11 -43 38 -67.5t81.5 -58t80 -60.5t25.5 -68 q0 -123 -197 -123h-655q-187 0 -197 115z" />
<glyph unicode="m" horiz-adv-x="3473" d="M41 1413q0 67 102 119l541 278q58 25 82 25q78 0 78 -188v-111q289 291 569 291q368 0 524 -291q232 283 508 283q196 0 330 -110t195 -308l254 -832q47 -159 94 -237q33 -52 143 -123q70 -43 70 -103q0 -106 -144 -106h-757q-197 0 -197 119q0 42 31 69.5t93 59.5 t93.5 56t32.5 61q0 91 -37 204l-188 623q-72 233 -246 233q-131 0 -188.5 -113t-57.5 -259v-275q0 -248 25 -409q11 -40 35.5 -64.5t75 -61t74.5 -64.5t24 -68q0 -111 -181 -111h-651q-184 0 -184 111q0 56 72 110t118.5 138t46.5 296q0 34 -2 102t-2 95q0 20 2 78t2 94 q0 414 -241 414q-146 0 -241 -120t-95 -269q0 -51 -2 -154t-2 -158q0 -233 32 -368q9 -38 35 -64t74.5 -60t72 -61.5t23.5 -72.5q0 -111 -180 -111h-651q-180 0 -180 111q0 54 72.5 110.5t118.5 141t46 292.5q0 59 -2 182t-2 183q0 133 -35 192.5t-84.5 79t-94 41.5 t-44.5 80z" />
<glyph unicode="n" horiz-adv-x="2331" d="M70 1393q0 30 24 63.5t49 46.5l562 295q24 18 61 25q98 0 98 -156v-127q151 139 254 204.5t242 65.5q416 0 573 -585l185 -656q50 -170 79 -224.5t138 -127.5q61 -40 61 -98q0 -119 -164 -119h-729q-58 0 -102.5 27.5t-44.5 83.5q0 44 25.5 71t80 62.5t83 69t28.5 87.5 q0 53 -17 115l-143 549q-89 385 -295 385q-142 0 -198 -128t-56 -290v-266q0 -241 25 -397q11 -39 34 -61t74 -58.5t76 -66.5t25 -72q0 -111 -185 -111h-651q-180 0 -180 111q0 54 72.5 110.5t118.5 141t46 292.5q0 63 -2 195t-2 194q0 146 -45 190t-122.5 74.5t-77.5 84.5z " />
<glyph unicode="o" horiz-adv-x="2298" d="M78 918q0 265 138 480.5t369 336t492 120.5q206 0 411 -74t370.5 -209t263.5 -322t98 -402q0 -297 -157.5 -494.5t-413 -290t-543.5 -92.5q-306 0 -538 107t-361 321t-129 519zM623 1270q0 -192 87.5 -433.5t247 -410t361.5 -168.5q149 0 230 104.5t81 260.5 q0 127 -58 298t-157.5 329.5t-229.5 261t-267 102.5q-129 0 -212 -105.5t-83 -238.5z" />
<glyph unicode="p" horiz-adv-x="2294" d="M49 1442q0 55 94 110l492 258q35 19 78 25q84 0 109.5 -64.5t25.5 -168.5v-50q273 291 528 291q245 0 438 -147.5t297.5 -379t104.5 -468.5q0 -215 -91.5 -423t-262.5 -339t-392 -131q-366 0 -622 315v-221q0 -190 24 -319q14 -41 42.5 -67.5t80 -59t77.5 -60t26 -63.5 q0 -127 -197 -127h-651q-183 0 -193 115q0 54 27.5 79t86 56t79.5 61q53 67 53 377v160v876q0 148 -42.5 187.5t-127 74.5t-84.5 103zM823 918q0 -123 27 -242.5t99 -203t194 -83.5q158 0 287.5 107t203.5 269t74 312q0 184 -109 331.5t-288 147.5q-154 0 -265 -96 t-167 -246t-56 -296z" />
<glyph unicode="q" horiz-adv-x="2245" d="M78 778q0 259 123.5 505t341 399t481.5 153q103 0 186.5 -28.5t186.5 -76t135 -47.5q44 0 86 21t101 61t97.5 59t84.5 19q98 0 98 -180v-1454v-107q0 -230 24 -376q12 -40 40.5 -69.5t76.5 -65.5t70 -62t22 -61q-5 -111 -184 -111h-647q-184 0 -184 111q0 52 72 110 t118.5 141.5t46.5 284.5q0 35 -2 102t-2 95q-293 -246 -614 -246q-224 0 -397.5 112t-267 301.5t-93.5 409.5zM610 1077q0 -152 70 -324t195 -290.5t280 -118.5q198 0 252.5 159t54.5 406q0 158 -39.5 308t-135.5 253t-255 103q-194 0 -308 -147t-114 -349z" />
<glyph unicode="r" horiz-adv-x="1733" d="M57 115q0 54 27 77.5t88 56t82 62.5q53 68 53 377v438q0 86 -30.5 120t-93.5 52t-88 35t-25 76q6 57 65 86l537 311q32 23 78 29q106 0 106 -172q8 -156 8 -238q118 138 205 221.5t200.5 136t262.5 52.5q217 0 225 -90q0 -42 -12 -86l-156 -467q-33 -102 -98 -107 q-40 0 -106 77t-104 111t-114 34q-120 0 -190.5 -68.5t-97.5 -172t-27 -222.5v-226q0 -196 37 -278q18 -38 91 -80.5t97.5 -63.5t24.5 -73q0 -123 -184 -123h-664q-187 0 -197 115z" />
<glyph unicode="s" horiz-adv-x="2003" d="M45 635q0 27 24 48.5t50 21.5q27 0 138 -91t216.5 -165.5t260 -136.5t327.5 -62q103 0 188.5 38.5t93.5 125.5q0 92 -214.5 185.5t-432.5 184t-377 227.5t-159 349q0 154 80.5 266.5t213.5 170.5t283 58q105 0 182 -16t216.5 -51t183.5 -35q51 6 94 49q74 62 98 62 q66 0 103 -90l229 -431q0 -2 14.5 -34.5t14.5 -51.5q0 -48 -53 -61q-42 0 -127.5 54.5t-214.5 139t-255.5 136t-254.5 51.5q-205 0 -209 -119q0 -105 95 -148.5t441 -171t509 -261.5t163 -357q0 -191 -93.5 -326t-251 -201.5t-347.5 -66.5q-139 0 -356 51.5t-279 51.5 q-30 0 -49 -15.5t-44 -48.5t-45.5 -50.5t-49.5 -20.5q-4 0 -6 1.5t-3 2.5q-69 0 -123 106l-245 541q-29 54 -29 90z" />
<glyph unicode="t" horiz-adv-x="1462" d="M-20 1589q0 44 26 83.5t80.5 88.5t60.5 54q259 257 517 610q51 78 106 78q82 0 82 -127v-451q0 -115 94 -115q77 0 210.5 2.5t248.5 2.5q82 0 82 -66q0 -81 -29 -161.5t-94 -80.5q-66 0 -195 2t-194 2q-49 0 -74 -4q-33 -9 -33 -139v-33q0 -111 2 -330t2 -329 q0 -361 189 -361q56 0 118 34t123 68t115 34q43 0 77.5 -24.5t37.5 -66.5q0 -121 -116 -206t-276 -127.5t-280 -42.5q-112 0 -250 40t-234.5 122t-96.5 198q0 17 2 45t5.5 56.5t4.5 41.5q33 232 33 598q0 289 -29 377q-15 37 -94 37h-127q-94 0 -94 90z" />
<glyph unicode="u" horiz-adv-x="2220" d="M37 1475q0 81 98 118l488 213q38 17 61 17q107 0 107 -205l4 -213l21 -528q0 -562 241 -562q103 0 178.5 58t114.5 151.5t39 192.5q0 87 -4.5 209t-4.5 188q0 157 -38 189.5t-116.5 54.5t-78.5 96q0 70 106 115l467 213q68 33 115 33q94 0 94 -181v-975q0 -169 25 -290 q14 -40 37.5 -63t74 -61t74 -66.5t23.5 -67.5q-11 -111 -185 -111h-479q-75 0 -97 34t-22 105v94q-317 -294 -594 -294q-212 0 -326 117.5t-152 293.5t-42.5 370.5t-7.5 401.5q-5 134 -17 185t-89 69q-115 16 -115 99z" />
<glyph unicode="v" horiz-adv-x="2064" d="M-61 1696q3 58 46 86t105 28h725q156 0 156 -118q0 -39 -19.5 -62.5t-61 -49.5t-62.5 -45t-25 -52q0 -23 33 -140l303 -745l270 737q33 124 33 156q0 50 -39 77.5t-78 54.5t-39 77q0 110 172 110h504q176 0 176 -122q0 -59 -31.5 -86t-99.5 -58q-81 -37 -121.5 -105 t-83.5 -190l-459 -1143q-24 -65 -51 -85.5t-96 -20.5h-266q-42 0 -69 11.5t-45 32t-37.5 62t-24.5 50.5l-512 1179q-29 70 -78 121t-112 96.5t-86 70t-23 65.5z" />
<glyph unicode="w" horiz-adv-x="3351" d="M-61 1692q10 114 167 114h758q171 0 176 -127q0 -52 -27.5 -79.5t-81.5 -52t-77 -42t-23 -55.5q0 -33 29 -99t33 -81l278 -602l259 635q28 93 28 139q0 43 -25 71t-71.5 58.5t-69 56t-22.5 64.5q0 53 47.5 83.5t103.5 30.5h705q166 0 180 -106q0 -3 2 -12t2 -13 q0 -49 -27.5 -76.5t-75.5 -49t-73 -39t-25 -48.5q0 -32 37 -155l250 -635l283 643q41 84 41 160q0 49 -44 80.5l-88 63t-44 81.5q0 106 151 106h582q137 0 147 -94q0 -82 -49 -106q-114 -70 -167.5 -124t-106.5 -171l-525 -1176q-36 -81 -49.5 -102t-40 -27t-106.5 -6h-66 q-131 0 -181 3t-71.5 14t-30.5 35.5t-24 70.5l-307 819l-328 -831q-49 -119 -188 -119q-27 0 -93 4t-108 4q-104 0 -132.5 18.5t-68.5 112.5l-471 1110q-53 132 -105 197t-161 110q-102 45 -102 135z" />
<glyph unicode="x" horiz-adv-x="2224" d="M-57 106q0 60 42.5 85.5t145.5 66.5q116 40 215.5 114t200 177t190.5 196q82 69 82 111q0 18 -11 36.5t-34 43.5t-24 27l-402 462q-71 86 -160 136q-79 39 -107 60t-28 71q0 114 164 114h705q87 0 139 -18.5t57 -87.5q0 -40 -19 -61.5t-57 -43t-56.5 -38t-18.5 -46.5 q0 -45 43.5 -102.5t117 -130t89.5 -90.5q23 23 81.5 80.5t93.5 96.5t61 79t26 72q0 39 -40 64.5t-80 51.5t-40 68q0 106 156 106h606q160 0 160 -110q0 -68 -87 -115q-190 -106 -303 -217l-319 -307q-5 -6 -37.5 -38.5t-32.5 -47.5q0 -22 54 -86l413 -484q56 -72 168 -135 q24 -13 53 -28t49 -28.5t37 -35t21 -47.5q0 -79 -56 -103t-149 -24h-741q-168 0 -168 102q0 69 94 119q66 39 70 70q0 37 -26 81.5t-61.5 84t-83 85t-71.5 68.5q-47 -44 -112 -105.5t-116 -125t-51 -105.5q0 -31 19 -48t57 -37t57 -38.5t19 -56.5q0 -94 -168 -94h-16h-643 q-168 0 -168 106z" />
<glyph unicode="y" horiz-adv-x="2040" d="M-61 1692q5 114 143 114h729q142 0 156 -86q0 -48 -21 -73t-64 -49.5t-63.5 -43.5t-23.5 -55q0 -73 36 -156l295 -643l275 615q41 100 41 160q0 47 -44 78.5l-88 63t-44 79.5q0 55 43 82.5t100 27.5h557q137 0 148 -98q0 -55 -29.5 -82.5t-97.5 -69.5q-158 -89 -275 -352 l-500 -1134q-298 -680 -737 -680q-170 0 -266 65q-58 31 -105 241.5t-47 315.5q0 37 21 68t57 31q51 0 84 -32.5t90.5 -107.5t106 -111t121.5 -36q176 0 294 246l-585 1261q-80 175 -180 221q-65 31 -94 56.5t-29 74.5z" />
<glyph unicode="z" horiz-adv-x="2126" d="M8 115q0 66 59.5 143.5t144 152t148.5 130.5l537 540q56 62 142 148t157 160q70 70 70 94q-15 33 -58 33q-244 0 -417 -47.5t-262.5 -101.5t-178.5 -122.5t-121 -68.5q-82 0 -82 110q11 23 20.5 44.5t20.5 45.5l209 398q9 16 28 53.5t37 62t43.5 42.5t55.5 18 q44 0 70 -21q91 -82 165 -100.5t224 -18.5h770q5 0 41 2.5t78 2.5q262 0 262 -86q0 -66 -76 -154t-211 -223l-704 -762q-8 -8 -69.5 -68t-100.5 -106.5t-39 -67.5q0 -41 65 -41q225 0 396.5 50.5t273 113t193.5 133.5t120 72q86 0 86 -62q0 -46 -16 -73l-299 -590 q-48 -94 -119 -94q-32 0 -90.5 44t-122.5 71.5t-184 27.5h-107h-929q-230 0 -230 115z" />
<glyph unicode="{" d="M426 1085v103q177 12 244 86t67 254q0 75 -4 227t-4 227q0 231 21 374t87 242.5t195.5 147t347.5 47.5q43 0 120 2.5t142 2.5v-107q-246 -8 -331 -106q-103 -127 -103 -394q0 -94 2 -280t2 -281q0 -221 -103 -333.5t-331 -153.5v-13q242 -34 334 -172t92 -397v-635 q11 -249 102.5 -352t335.5 -106v-107h-65q-249 4 -368.5 14t-236.5 60t-184 169t-67 326q0 132 8 392t8 391q0 178 -60.5 271t-250.5 101z" />
<glyph unicode="|" d="M815 -684v3412h422v-3412h-422z" />
<glyph unicode="}" d="M406 -532q164 6 256.5 51.5t134 143.5t47.5 263v529q6 240 26 357t110.5 203.5t289.5 114.5v13q-420 75 -430 401v692q-6 247 -101 345t-333 110v107h81q259 -5 349 -11t193 -45.5t174 -137.5t95 -277q21 -186 21 -345q-8 -286 -8 -430q0 -183 66.5 -267.5t244.5 -96.5 v-103q-158 -10 -232.5 -76t-74.5 -223q0 -200 8 -602q0 -255 -13.5 -386t-71 -226.5t-188.5 -146.5t-370 -60q-45 0 -137 -2t-137 -2v107z" />
<glyph unicode="~" horiz-adv-x="2732" d="M565 1458q111 201 230.5 326t289.5 133q96 0 214.5 -39t236.5 -78t213 -39q177 0 324 176l94 -57q-231 -459 -541 -459q-95 0 -212 41t-234.5 82t-212.5 41q-87 0 -171.5 -53.5t-136.5 -130.5z" />
<glyph unicode="&#xa1;" horiz-adv-x="1057" d="M176 -434q0 -161 99 -261t262 -100q178 0 271 95t93 270q0 116 -33 324l-163 958q-10 64 -22 140.5t-38 134t-72 57.5q-13 0 -44 -2t-46 -2q-34 -9 -54 -71.5t-29.5 -139t-14.5 -117.5l-168 -934q-36 -208 -41 -352zM217 1532q0 -112 44 -146t161 -34q64 0 136.5 -4.5 t100.5 -4.5q105 0 151 40.5t46 164.5v262q0 82 -20 118t-60 45t-133 9h-237q-120 0 -154.5 -32t-34.5 -148v-270z" />
<glyph unicode="&#xa2;" horiz-adv-x="2404" d="M246 1384q0 184 75 351t204 295t297 209t345 100v209q0 233 140 233q70 0 104.5 -49t34.5 -123v-266q167 -7 346 -59.5t285 -141.5q32 -32 32 -57q0 -11 -4 -29t-8 -29.5t-12 -35.5l-176 -377q-40 -70 -94 -70q-34 0 -55.5 38.5t-72.5 158t-104 201.5t-137 139v-1340 q178 11 300.5 71t240.5 196q67 86 118 90q37 0 68 -28.5t31 -65.5q0 -124 -258 -345q-204 -161 -500 -200v-209q0 -101 -26.5 -165.5t-112.5 -64.5q-66 0 -103 49t-37 119v271q-260 29 -471 145.5t-330.5 316t-119.5 463.5zM881 1487q0 -456 286 -660v1262 q-152 -68 -219 -236.5t-67 -365.5z" />
<glyph unicode="&#xa3;" horiz-adv-x="2130" d="M213 283q0 153 131.5 230t298.5 77q126 0 275 -41q0 204 -213 741h-422v250h340q-50 186 -50 393q0 238 102 430.5t289 303t425 110.5q138 0 276.5 -55.5t227.5 -162t89 -249.5q0 -102 -65 -174t-164 -72q-108 0 -170.5 86t-62.5 197q0 18 6 63t6 64q0 66 -41.5 109 t-106.5 43q-113 0 -171 -98t-58 -218q0 -147 68 -410t80 -360h413v-250h-385q0 -511 -155 -807q236 -94 450 -94q138 0 257.5 72.5t156.5 197.5l82 -12q-29 -283 -158.5 -481.5t-390.5 -198.5q-277 0 -537 238q-195 -238 -475 -238q-139 0 -243.5 90.5t-104.5 225.5z M479 279q0 -69 40.5 -106.5t103.5 -37.5q74 0 150.5 50.5t111.5 138.5q-131 94 -246 94q-65 0 -112.5 -39t-47.5 -100z" />
<glyph unicode="&#xa5;" horiz-adv-x="2310" d="M0 2646v86h1081v-86h-49q-196 0 -196 -94q0 -23 8.5 -47t22 -53t22.5 -52l487 -1089l422 954q70 140 74 217q0 164 -279 164v86h717v-86q-135 -19 -212.5 -115.5t-151.5 -269.5l-291 -668h479v-172h-549l-131 -254v-135h680v-172h-680v-446q0 -149 33.5 -217.5t107 -89.5 t220.5 -21v-86h-1246v86q152 0 226.5 22.5t106.5 91.5t32 214v446h-684v172h684v45l-172 344h-512v172h438l-319 721q-71 165 -145.5 241.5t-223.5 90.5z" />
<glyph unicode="&#xa7;" horiz-adv-x="2425" d="M176 1069q0 160 94.5 285.5t257.5 259.5q-217 211 -217 475q0 224 141.5 382.5t357.5 236t431 77.5q174 0 362.5 -53.5t323.5 -171.5t146 -295q0 -105 -44 -195.5t-125 -144t-188 -53.5q-110 0 -211.5 51.5t-115.5 149.5q0 44 40 73t79.5 58t39.5 73q0 94 -101 147.5 t-206 53.5q-135 0 -226.5 -68.5t-101.5 -197.5q0 -69 33 -122.5t83 -90.5t109.5 -67.5t127.5 -63.5l434 -201q261 -123 405 -245t144 -332q0 -305 -344 -586q229 -197 245 -459q0 -258 -136 -444t-361.5 -280.5t-481.5 -94.5q-200 0 -417 67.5t-364.5 209.5t-147.5 350 q0 172 109 282.5t276 110.5q111 0 215 -51t104 -150q0 -40 -22 -61.5t-68 -46t-68 -46.5t-22 -67q0 -132 121.5 -199t263.5 -67q144 0 264.5 90.5t120.5 232.5q0 136 -132 212t-499.5 241.5t-548 326t-180.5 408.5zM664 1270q0 -99 62 -149t196 -113l483 -222 q19 -10 107 -49.5t122 -60.5q95 103 95 196q0 51 -27.5 90.5t-67.5 66t-96 52t-92 41.5l-447 201q-127 61 -229 123q-8 -12 -37.5 -50.5t-46.5 -66.5t-22 -59z" />
<glyph unicode="&#xa8;" d="M254 2367q0 148 175 246.5t333 98.5q81 0 141 -50.5t60 -130.5q0 -104 -81 -186.5t-200 -128t-219 -45.5q-85 0 -147 58.5t-62 137.5zM1155 2367q0 148 175 246.5t333 98.5q81 0 141 -50.5t60 -130.5q0 -104 -81 -186.5t-200 -128t-219 -45.5q-85 0 -147 58.5t-62 137.5z " />
<glyph unicode="&#xa9;" horiz-adv-x="3293" d="M225 1368q0 381 191 707.5t519 518t712 191.5q381 0 707.5 -190.5t518 -516.5t191.5 -710q0 -385 -191.5 -712t-518 -518t-707.5 -191q-384 0 -711.5 191.5t-519 518t-191.5 711.5zM401 1368q0 -335 168.5 -622t455.5 -455t622 -168t622 168t455 455t168 622t-168 622 t-455 455t-622 168t-622 -168t-455.5 -455t-168.5 -622zM881 1339q0 224 100.5 406.5t278 285.5t399.5 103q81 0 141.5 -16t151 -47t125.5 -31q57 0 90 94l78 8v-495h-74q-52 151 -162.5 257.5t-259.5 106.5q-215 0 -308 -201t-93 -442q0 -255 86 -445t303 -190 q288 0 516 361v-193q-112 -140 -268 -221.5t-326 -81.5q-216 0 -394.5 92.5t-281 260.5t-102.5 388z" />
<glyph unicode="&#xaa;" horiz-adv-x="1384" d="M111 1196v176h1200v-176h-1200zM156 1855q0 290 630 451v180q0 168 -155 168q-48 0 -108 -22t-60 -64q0 -24 28.5 -64.5t28.5 -70.5q0 -63 -51.5 -103t-116.5 -40q-69 0 -120.5 50t-51.5 118q0 96 84 164.5t200.5 101.5t211.5 33q204 0 321 -68.5t117 -259.5v-549v-33 q0 -94 41 -94q39 0 74 70l53 -33q-40 -78 -113.5 -125t-156.5 -47q-93 0 -143 40.5t-83 131.5q-210 -172 -376 -172q-102 0 -178 67.5t-76 169.5zM487 1925q0 -115 91 -127q103 0 208 98v312q-113 -33 -206 -107t-93 -176z" />
<glyph unicode="&#xab;" horiz-adv-x="1634" d="M115 909q0 74 35.5 140.5t107.5 167.5q7 9 119.5 189.5t197 274t166.5 93.5q45 0 76 -30t31 -77q0 -111 -64.5 -235.5t-129 -249.5t-64.5 -236q0 -84 36.5 -166t108.5 -202t107 -193t35 -143q0 -51 -37 -87t-86 -36q-81 0 -229.5 155.5t-275.5 353t-134 281.5zM729 922 q0 93 115 262q68 102 125.5 188t128.5 181t135.5 156.5t109.5 64.5q50 0 86.5 -29.5t36.5 -77.5q0 -69 -32 -149t-94.5 -202.5t-97 -211t-34.5 -166.5q0 -88 32.5 -165t98 -188t101 -194.5t35.5 -173.5q0 -39 -32.5 -66.5t-70.5 -27.5q-86 0 -238 157t-275.5 353.5 t-129.5 288.5z" />
<glyph unicode="&#xac;" d="M119 803v291h1806v-1094h-680v803h-1126z" />
<glyph unicode="&#xad;" horiz-adv-x="987" d="M20 946q0 152 267 152h401q118 0 192.5 -24.5t77.5 -115.5q0 -99 -75.5 -127t-198.5 -28h-393q-121 0 -196 25t-75 118z" />
<glyph unicode="&#xae;" horiz-adv-x="3293" d="M225 1368q0 381 191 707.5t519 518t712 191.5q381 0 707.5 -190.5t518 -516.5t191.5 -710q0 -385 -191.5 -712t-518 -518t-707.5 -191q-384 0 -711.5 191.5t-519 518t-191.5 711.5zM401 1368q0 -335 168.5 -622t455.5 -455t622 -168t622 168t455 455t168 622t-168 622 t-455 455t-622 168t-622 -168t-455.5 -455t-168.5 -622zM877 2032v82h835q250 0 428 -90t178 -320q0 -143 -71 -228t-215 -149l315 -528q58 -99 176 -99v-77h-475l-406 708h-143v-475q0 -83 27 -119.5t108 -36.5h70v-77h-815v77q108 0 150 29t42 127v1020q0 73 -21.5 107 t-61 41.5t-121.5 7.5zM1499 1405q208 0 305 56.5t97 242.5q0 185 -100 240t-302 55v-594z" />
<glyph unicode="&#xaf;" d="M311 2384v33q10 119 47.5 143.5t161.5 24.5h1004q132 0 182.5 -28.5t50.5 -139.5q0 -88 -18.5 -128t-55 -50.5t-114.5 -10.5h-53h-1000q-119 0 -162 29t-43 127z" />
<glyph unicode="&#xb0;" horiz-adv-x="1847" d="M508 2208q0 180 137 311t318 131q119 0 221.5 -63t163.5 -168.5t61 -223.5q0 -116 -61 -217.5t-164.5 -163t-216.5 -61.5q-122 0 -227.5 63t-168.5 167.5t-63 224.5zM741 2191q0 -86 69 -145t157 -59q87 0 145.5 62.5t58.5 154.5q0 83 -64 148t-149 65q-89 0 -153 -68 t-64 -158z" />
<glyph unicode="&#xb1;" d="M29 66v315h1986v-315h-1986zM29 1335v316h827v823h328v-823h831v-316h-831v-790h-328v790h-827z" />
<glyph unicode="&#xb4;" d="M647 2208q0 42 17 82l86 315q27 99 63.5 125.5t140.5 26.5h308q146 0 159 -62q0 -4 2 -14t2 -15q0 -71 -102 -155l-455 -352q-73 -66 -135 -66q-39 0 -62.5 36.5t-23.5 78.5z" />
<glyph unicode="&#xb5;" horiz-adv-x="2281" d="M176 -545q0 75 37 246q127 654 127 1282v889h557v-1176q0 -503 217 -503q162 0 332 213v1466h557v-1327v-49q0 -128 29.5 -209.5t130.5 -81.5q18 0 36.5 2.5t38 6t43.5 7.5v-82l-536 -184q-2 0 -6 2t-6 2q-5 0 -11 -2t-10 -2q-94 0 -136 68t-93 210 q-128 -144 -237 -221.5t-251 -77.5q-186 0 -286 81.5t-177 263.5q0 -124 23 -229t72 -255t67.5 -217t18.5 -143q0 -102 -78 -172t-184 -70q-125 0 -200 72.5t-75 189.5z" />
<glyph unicode="&#xb6;" horiz-adv-x="2593" d="M201 2073q0 171 83 325.5t228 235.5q166 98 516 98h180h1127v-135h-58q-111 0 -158 -19t-59 -64t-12 -151v-61v-2310v-82q0 -119 139 -119q19 0 53 2t50 2v-135h-553v2925h-287v-2925h-647v135h82q131 0 192.5 39.5t61.5 173.5v1397q-17 0 -48 -2t-47 -2q-311 0 -454 57 q-183 79 -286 246.5t-103 368.5zM692 2044q0 -185 80.5 -338.5t247.5 -153.5h119v1045q-183 0 -279 -49t-132 -165.5t-36 -338.5z" />
<glyph unicode="&#xb7;" horiz-adv-x="2404" d="M893 815q0 34 2 101t2 100q0 100 17.5 145.5t60 58.5t135.5 13h197q134 0 169 -38.5t35 -174.5v-176q0 -116 -9 -160.5t-49 -63t-138 -18.5h-193q-145 0 -187 40t-42 173z" />
<glyph unicode="&#xb8;" d="M623 -745q0 28 20 59t49 31q149 -74 209 -78q95 33 142 72t47 124q0 67 -50 112.5t-118 51.5q-66 0 -95 -8q-61 0 -61 57q0 25 31 86.5t76.5 139.5t56.5 98h258l-135 -238q163 0 270 -86t107 -245q0 -171 -139 -270t-316 -99q-107 0 -229.5 50.5t-122.5 142.5z" />
<glyph unicode="&#xba;" horiz-adv-x="1384" d="M94 1196v176h1200v-176h-1200zM135 2187q0 162 70.5 292t199.5 204t287 74q162 0 289.5 -73.5t197.5 -204.5t70 -292q0 -165 -69 -297t-196.5 -208t-291.5 -76t-291.5 76t-196.5 208t-69 297zM483 2183q0 -291 58 -393q53 -94 151 -94q108 0 164 110q45 103 45 377v62 q0 177 -37 297t-172 120q-129 0 -169 -118.5t-40 -294.5v-66z" />
<glyph unicode="&#xbb;" horiz-adv-x="1634" d="M176 1655q0 49 36 86t87 37q57 0 163 -95t214 -231t183.5 -265.5t78.5 -199.5q0 -80 -36.5 -146t-106.5 -161q-74 -120 -148.5 -241.5t-163 -218.5t-172.5 -97q-46 0 -76 31t-30 75q0 90 32.5 168.5t96 189.5t96.5 192.5t33 170.5q0 86 -37.5 170t-112 206.5t-106 188.5 t-31.5 140zM795 1679q0 37 33 66t69 29q80 0 234 -157.5t279.5 -352.5t129.5 -289q0 -70 -118 -280t-263.5 -388t-228.5 -184q-50 0 -88.5 29.5t-38.5 76.5q0 67 31 143t94.5 201t98 214.5t34.5 162.5q0 114 -66.5 239.5l-133 251t-66.5 238.5z" />
<glyph unicode="&#xbf;" horiz-adv-x="1683" d="M164 -16q0 220 81.5 368.5t193 251.5t239.5 230t149 251q16 80 40.5 112t95.5 32q172 0 172 -242q0 -119 -53 -217.5t-165 -251t-166.5 -260.5t-54.5 -238q0 -95 53.5 -182.5t147.5 -95.5q89 0 145 64t56 157q0 115 -103 127q0 92 78 148.5t176 56.5q120 0 212.5 -65 t143 -171t50.5 -223q0 -189 -102 -333t-267.5 -221t-351.5 -77q-218 0 -395 101t-276 280t-99 398zM647 1491v315q0 108 30.5 138t137.5 30h295q106 0 133 -30.5t27 -137.5v-303q0 -99 -27 -131.5t-125 -32.5h-291q-102 0 -141 28.5t-39 123.5z" />
<glyph unicode="&#xc0;" horiz-adv-x="3109" d="M-25 139q5 111 205 172q74 28 140.5 120.5t122 214.5t103 254t72.5 202q37 86 113 256t113 256q46 104 199 422.5t214 482.5q43 113 76.5 159t116.5 54q82 0 192 8t140 8q100 0 154.5 -49t107.5 -196l147 -365l156 -430l184 -471l185 -512q14 -34 45.5 -118t58.5 -141 t55 -89q30 -37 111.5 -74t120.5 -68.5t39 -103.5q0 -83 -59.5 -107t-157.5 -24h-828q-209 0 -209 135q0 91 86 119q55 24 82.5 40.5t32.5 49.5q0 227 -145 326.5t-379 99.5q-41 0 -128 4t-130 4q-210 0 -355 -106.5t-145 -311.5q0 -39 21 -57t73 -47t77.5 -54t25.5 -71 q0 -131 -193 -131h-663q-81 0 -114.5 30t-62.5 109zM1151 1208q0 -60 68 -83t239 -23h41q291 0 291 119q0 80 -94 321t-205 510q-91 -179 -215.5 -468t-124.5 -376zM1167 3572q0 86 164 86h311q103 0 141 -28t64 -128q22 -69 44 -136t38.5 -131.5t16.5 -105.5 q0 -135 -82 -135q-43 0 -135 61l-455 357q-107 78 -107 160z" />
<glyph unicode="&#xc1;" horiz-adv-x="3109" d="M-25 139q5 111 205 172q74 28 140.5 120.5t122 214.5t103 254t72.5 202q37 86 113 256t113 256q46 104 199 422.5t214 482.5q43 113 76.5 159t116.5 54q82 0 192 8t140 8q100 0 154.5 -49t107.5 -196l147 -365l156 -430l184 -471l185 -512q14 -34 45.5 -118t58.5 -141 t55 -89q30 -37 111.5 -74t120.5 -68.5t39 -103.5q0 -83 -59.5 -107t-157.5 -24h-828q-209 0 -209 135q0 91 86 119q55 24 82.5 40.5t32.5 49.5q0 227 -145 326.5t-379 99.5q-41 0 -128 4t-130 4q-210 0 -355 -106.5t-145 -311.5q0 -39 21 -57t73 -47t77.5 -54t25.5 -71 q0 -131 -193 -131h-663q-81 0 -114.5 30t-62.5 109zM1151 1208q0 -60 68 -83t239 -23h41q291 0 291 119q0 80 -94 321t-205 510q-91 -179 -215.5 -468t-124.5 -376zM1171 3109q0 42 17 82l86 315q27 99 63.5 125.5t140.5 26.5h308q146 0 159 -62q0 -4 2 -14t2 -15 q0 -71 -102 -155l-455 -352q-73 -66 -135 -66q-39 0 -62.5 36.5t-23.5 78.5z" />
<glyph unicode="&#xc2;" horiz-adv-x="3109" d="M-25 139q5 111 205 172q74 28 140.5 120.5t122 214.5t103 254t72.5 202q37 86 113 256t113 256q46 104 199 422.5t214 482.5q43 113 76.5 159t116.5 54q82 0 192 8t140 8q100 0 154.5 -49t107.5 -196l147 -365l156 -430l184 -471l185 -512q14 -34 45.5 -118t58.5 -141 t55 -89q30 -37 111.5 -74t120.5 -68.5t39 -103.5q0 -83 -59.5 -107t-157.5 -24h-828q-209 0 -209 135q0 91 86 119q55 24 82.5 40.5t32.5 49.5q0 227 -145 326.5t-379 99.5q-41 0 -128 4t-130 4q-210 0 -355 -106.5t-145 -311.5q0 -39 21 -57t73 -47t77.5 -54t25.5 -71 q0 -131 -193 -131h-663q-81 0 -114.5 30t-62.5 109zM893 3121q0 95 127 184l352 279q113 86 185 86q57 0 223 -105.5t302.5 -233t137.5 -198.5q0 -50 -31.5 -89.5t-78.5 -45.5q-87 0 -180.5 50.5t-186 100.5t-178.5 50q-66 0 -126 -25.5t-144.5 -77.5t-141.5 -77t-125 -25 q-56 0 -95.5 37t-39.5 90zM1151 1208q0 -60 68 -83t239 -23h41q291 0 291 119q0 80 -94 321t-205 510q-91 -179 -215.5 -468t-124.5 -376z" />
<glyph unicode="&#xc3;" horiz-adv-x="3109" d="M-25 139q5 111 205 172q74 28 140.5 120.5t122 214.5t103 254t72.5 202q37 86 113 256t113 256q46 104 199 422.5t214 482.5q43 113 76.5 159t116.5 54q82 0 192 8t140 8q100 0 154.5 -49t107.5 -196l147 -365l156 -430l184 -471l185 -512q14 -34 45.5 -118t58.5 -141 t55 -89q30 -37 111.5 -74t120.5 -68.5t39 -103.5q0 -83 -59.5 -107t-157.5 -24h-828q-209 0 -209 135q0 91 86 119q55 24 82.5 40.5t32.5 49.5q0 227 -145 326.5t-379 99.5q-41 0 -128 4t-130 4q-210 0 -355 -106.5t-145 -311.5q0 -39 21 -57t73 -47t77.5 -54t25.5 -71 q0 -131 -193 -131h-663q-81 0 -114.5 30t-62.5 109zM848 3207q0 164 108 293t269 129q93 0 176 -22t197.5 -64.5t184 -62t138.5 -19.5q39 0 64.5 20t53.5 60.5t49 61t59 26.5q60 0 93.5 -44.5t33.5 -107.5q0 -161 -108.5 -295.5t-264.5 -134.5q-78 0 -150.5 19.5 t-191.5 62.5t-188 62.5t-146 23.5q-51 0 -92.5 -40l-83 -80t-90.5 -40q-54 0 -82.5 46t-28.5 106zM1151 1208q0 -60 68 -83t239 -23h41q291 0 291 119q0 80 -94 321t-205 510q-91 -179 -215.5 -468t-124.5 -376z" />
<glyph unicode="&#xc4;" horiz-adv-x="3109" d="M-25 139q5 111 205 172q74 28 140.5 120.5t122 214.5t103 254t72.5 202q37 86 113 256t113 256q46 104 199 422.5t214 482.5q43 113 76.5 159t116.5 54q82 0 192 8t140 8q100 0 154.5 -49t107.5 -196l147 -365l156 -430l184 -471l185 -512q14 -34 45.5 -118t58.5 -141 t55 -89q30 -37 111.5 -74t120.5 -68.5t39 -103.5q0 -83 -59.5 -107t-157.5 -24h-828q-209 0 -209 135q0 91 86 119q55 24 82.5 40.5t32.5 49.5q0 227 -145 326.5t-379 99.5q-41 0 -128 4t-130 4q-210 0 -355 -106.5t-145 -311.5q0 -39 21 -57t73 -47t77.5 -54t25.5 -71 q0 -131 -193 -131h-663q-81 0 -114.5 30t-62.5 109zM836 3272q0 148 175 246.5t333 98.5q81 0 141 -50.5t60 -130.5q0 -104 -81 -186.5t-200 -128t-219 -45.5q-85 0 -147 58.5t-62 137.5zM1151 1208q0 -60 68 -83t239 -23h41q291 0 291 119q0 80 -94 321t-205 510 q-91 -179 -215.5 -468t-124.5 -376zM1737 3272q0 148 175 246.5t333 98.5q81 0 141 -50.5t60 -130.5q0 -104 -81 -186.5t-200 -128t-219 -45.5q-85 0 -147 58.5t-62 137.5z" />
<glyph unicode="&#xc5;" horiz-adv-x="3109" d="M-25 139q5 111 205 172q74 28 140.5 120.5t122 214.5t103 254t72.5 202q37 86 113 256t113 256q46 104 199 422.5t214 482.5q43 113 76.5 159t116.5 54q82 0 192 8t140 8q100 0 154.5 -49t107.5 -196l147 -365l156 -430l184 -471l185 -512q14 -34 45.5 -118t58.5 -141 t55 -89q30 -37 111.5 -74t120.5 -68.5t39 -103.5q0 -83 -59.5 -107t-157.5 -24h-828q-209 0 -209 135q0 91 86 119q55 24 82.5 40.5t32.5 49.5q0 227 -145 326.5t-379 99.5q-41 0 -128 4t-130 4q-210 0 -355 -106.5t-145 -311.5q0 -39 21 -57t73 -47t77.5 -54t25.5 -71 q0 -131 -193 -131h-663q-81 0 -114.5 30t-62.5 109zM1151 1208q0 -60 68 -83t239 -23h41q291 0 291 119q0 80 -94 321t-205 510q-91 -179 -215.5 -468t-124.5 -376zM1209 3342q0 115 54 206.5t149 141.5t210 50q189 0 326 -126t137 -313q0 -173 -127 -275t-303 -102 q-185 0 -315.5 117.5t-130.5 300.5zM1495 3441q0 -97 52 -231t133 -134q54 0 78 45.5t24 101.5q0 110 -44.5 237.5t-131.5 127.5q-54 0 -82.5 -46.5t-28.5 -100.5z" />
<glyph unicode="&#xc6;" horiz-adv-x="4309" d="M-86 127q5 65 70 104.5t160.5 95t142.5 132.5l1274 2126q51 84 93 113.5t132 29.5h1118h107q213 0 299 57q27 18 48.5 32.5t45.5 26t49 11.5q83 0 156 -107l327 -467q54 -86 54 -131q0 -50 -33 -84t-82 -34q-45 0 -115.5 48.5t-197 134t-278.5 137.5t-343 52 q-188 0 -270 -45q-70 -41 -70 -209q0 -213 25 -315q24 -78 188 -78q96 0 155.5 27.5t102.5 103.5q53 78 115 78q81 0 127 -78l344 -508q23 -27 41 -86q0 -60 -33.5 -105.5t-93.5 -45.5q-62 0 -203 90.5t-243 139t-259 48.5q-208 0 -246 -106q-32 -94 -32 -336v-111 q0 -287 57 -401q39 -78 201 -78q285 0 465.5 15.5t364.5 80.5t349 203q3 3 44 38.5t71 52t61 16.5q45 0 82 -40.5t37 -86.5q0 -41 -32 -107l-304 -536q-91 -164 -192 -164q-35 0 -97.5 42t-137.5 69.5t-220 27.5h-1515q-192 0 -197 135q0 79 102 136t141.5 92.5t39.5 177.5 q0 104 -13 145.5t-57.5 54.5t-155.5 13h-389q-138 0 -228.5 -23.5t-164.5 -107.5q-127 -150 -127 -258q0 -44 23.5 -68t73 -50.5t77.5 -51.5t31 -68q0 -127 -143 -127h-787q-63 0 -90.5 30t-44.5 97zM1229 1180q0 -5 2 -13t2 -12q31 -70 237 -70q19 0 68 -2t76 -2 q110 0 171 12.5t96.5 59t35.5 141.5v45v484v32q0 177 -94 177q-61 0 -103 -43.5t-98 -128.5l-336 -545q-57 -94 -57 -135z" />
<glyph unicode="&#xc7;" horiz-adv-x="3011" d="M94 1298q0 407 198 753t540.5 548.5t748.5 202.5q272 0 643 -115q25 -12 62 -12q34 0 57 18.5t53.5 55t54.5 55t56 18.5q43 0 76 -28.5t54 -67.5t41.5 -99.5t28.5 -82.5l148 -394q49 -184 49 -196q0 -57 -28 -100.5t-78 -43.5q-59 0 -158 99t-234.5 236t-292 225 t-348.5 88q-275 0 -466 -153t-284 -398t-93 -518q0 -301 112.5 -533t331.5 -359.5t522 -127.5q193 0 340.5 50.5t221.5 99t188.5 133.5t150.5 85q51 0 94 -37t46 -90q0 -186 -180 -334.5t-429.5 -235.5t-439.5 -101l-16 -5l-99 -172q162 0 269.5 -86.5t107.5 -244.5 q0 -171 -138 -270t-316 -99q-109 0 -231 50.5t-122 142.5q0 29 20.5 59.5t49.5 30.5q134 -73 209 -78q97 34 142.5 71t45.5 125q0 64 -51 112.5t-117 51.5q-65 0 -94 -8q-61 0 -61 57q0 24 20 65.5t60.5 111t46.5 81.5h-13q-298 18 -566.5 115.5t-479.5 271.5t-332 422.5 t-121 554.5z" />
<glyph unicode="&#xc8;" horiz-adv-x="2941" d="M98 139q0 72 32 93t114 53.5t108 74.5q16 32 22 82t8 108.5t3 88.5q8 320 8 475v504q0 143 -4 217q-1 60 -3.5 197t-9.5 223t-24 117q-26 36 -104 65t-114 55.5t-36 100.5q0 139 242 139h1294q116 0 192 12t140 58q97 57 131 57q64 0 119 -78l369 -524q36 -52 36 -103 q0 -49 -29.5 -87.5t-76.5 -38.5q-34 0 -149 77.5t-219.5 136.5t-291 112.5t-421.5 53.5q-144 0 -215 -21.5t-100 -78t-29 -166.5v-78q0 -131 17 -194t58 -86t125 -23q94 0 146 14.5t96 71.5q17 22 30.5 39t35 39.5t41 33.5t40.5 11q77 0 131 -86l340 -508q23 -27 37 -78 q0 -61 -33.5 -108t-93.5 -47q-57 0 -194.5 88.5t-245.5 139t-260 50.5q-221 0 -258 -102q-25 -74 -25 -201t8 -389q3 -142 24 -209.5t84 -99t196 -31.5q75 0 227 2t227 2q229 7 392 62.5t291 144.5t192 137.5t108 48.5q47 0 81 -37t34 -90q0 -52 -25 -106l-352 -610 q-48 -90 -123 -90q-59 0 -132 60t-109 71q-70 16 -218 16h-1642q-107 0 -172 26t-70 113zM1081 3576q0 86 164 86h311q103 0 141 -28t64 -128q22 -69 44 -136t38.5 -131.5t16.5 -105.5q0 -135 -82 -135q-43 0 -135 61l-455 357q-107 78 -107 160z" />
<glyph unicode="&#xc9;" horiz-adv-x="2941" d="M98 139q0 72 32 93t114 53.5t108 74.5q16 32 22 82t8 108.5t3 88.5q8 320 8 475v504q0 143 -4 217q-1 60 -3.5 197t-9.5 223t-24 117q-26 36 -104 65t-114 55.5t-36 100.5q0 139 242 139h1294q116 0 192 12t140 58q97 57 131 57q64 0 119 -78l369 -524q36 -52 36 -103 q0 -49 -29.5 -87.5t-76.5 -38.5q-34 0 -149 77.5t-219.5 136.5t-291 112.5t-421.5 53.5q-144 0 -215 -21.5t-100 -78t-29 -166.5v-78q0 -131 17 -194t58 -86t125 -23q94 0 146 14.5t96 71.5q17 22 30.5 39t35 39.5t41 33.5t40.5 11q77 0 131 -86l340 -508q23 -27 37 -78 q0 -61 -33.5 -108t-93.5 -47q-57 0 -194.5 88.5t-245.5 139t-260 50.5q-221 0 -258 -102q-25 -74 -25 -201t8 -389q3 -142 24 -209.5t84 -99t196 -31.5q75 0 227 2t227 2q229 7 392 62.5t291 144.5t192 137.5t108 48.5q47 0 81 -37t34 -90q0 -52 -25 -106l-352 -610 q-48 -90 -123 -90q-59 0 -132 60t-109 71q-70 16 -218 16h-1642q-107 0 -172 26t-70 113zM1085 3113q0 42 17 82l86 315q27 99 63.5 125.5t140.5 26.5h308q146 0 159 -62q0 -4 2 -14t2 -15q0 -71 -102 -155l-455 -352q-73 -66 -135 -66q-39 0 -62.5 36.5t-23.5 78.5z" />
<glyph unicode="&#xca;" horiz-adv-x="2941" d="M98 139q0 72 32 93t114 53.5t108 74.5q16 32 22 82t8 108.5t3 88.5q8 320 8 475v504q0 143 -4 217q-1 60 -3.5 197t-9.5 223t-24 117q-26 36 -104 65t-114 55.5t-36 100.5q0 139 242 139h1294q116 0 192 12t140 58q97 57 131 57q64 0 119 -78l369 -524q36 -52 36 -103 q0 -49 -29.5 -87.5t-76.5 -38.5q-34 0 -149 77.5t-219.5 136.5t-291 112.5t-421.5 53.5q-144 0 -215 -21.5t-100 -78t-29 -166.5v-78q0 -131 17 -194t58 -86t125 -23q94 0 146 14.5t96 71.5q17 22 30.5 39t35 39.5t41 33.5t40.5 11q77 0 131 -86l340 -508q23 -27 37 -78 q0 -61 -33.5 -108t-93.5 -47q-57 0 -194.5 88.5t-245.5 139t-260 50.5q-221 0 -258 -102q-25 -74 -25 -201t8 -389q3 -142 24 -209.5t84 -99t196 -31.5q75 0 227 2t227 2q229 7 392 62.5t291 144.5t192 137.5t108 48.5q47 0 81 -37t34 -90q0 -52 -25 -106l-352 -610 q-48 -90 -123 -90q-59 0 -132 60t-109 71q-70 16 -218 16h-1642q-107 0 -172 26t-70 113zM807 3121q0 95 127 184l352 279q113 86 185 86q57 0 223 -105.5t302.5 -233t137.5 -198.5q0 -50 -31.5 -89.5t-78.5 -45.5q-87 0 -180.5 50.5t-186 100.5t-178.5 50q-66 0 -126 -25.5 t-144.5 -77.5t-141.5 -77t-125 -25q-56 0 -95.5 37t-39.5 90z" />
<glyph unicode="&#xcb;" horiz-adv-x="2941" d="M98 139q0 72 32 93t114 53.5t108 74.5q16 32 22 82t8 108.5t3 88.5q8 320 8 475v504q0 143 -4 217q-1 60 -3.5 197t-9.5 223t-24 117q-26 36 -104 65t-114 55.5t-36 100.5q0 139 242 139h1294q116 0 192 12t140 58q97 57 131 57q64 0 119 -78l369 -524q36 -52 36 -103 q0 -49 -29.5 -87.5t-76.5 -38.5q-34 0 -149 77.5t-219.5 136.5t-291 112.5t-421.5 53.5q-144 0 -215 -21.5t-100 -78t-29 -166.5v-78q0 -131 17 -194t58 -86t125 -23q94 0 146 14.5t96 71.5q17 22 30.5 39t35 39.5t41 33.5t40.5 11q77 0 131 -86l340 -508q23 -27 37 -78 q0 -61 -33.5 -108t-93.5 -47q-57 0 -194.5 88.5t-245.5 139t-260 50.5q-221 0 -258 -102q-25 -74 -25 -201t8 -389q3 -142 24 -209.5t84 -99t196 -31.5q75 0 227 2t227 2q229 7 392 62.5t291 144.5t192 137.5t108 48.5q47 0 81 -37t34 -90q0 -52 -25 -106l-352 -610 q-48 -90 -123 -90q-59 0 -132 60t-109 71q-70 16 -218 16h-1642q-107 0 -172 26t-70 113zM664 3272q0 148 175 246.5t333 98.5q81 0 141 -50.5t60 -130.5q0 -104 -81 -186.5t-200 -128t-219 -45.5q-85 0 -147 58.5t-62 137.5zM1565 3272q0 148 175 246.5t333 98.5 q81 0 141 -50.5t60 -130.5q0 -104 -81 -186.5t-200 -128t-219 -45.5q-85 0 -147 58.5t-62 137.5z" />
<glyph unicode="&#xcc;" horiz-adv-x="1462" d="M102 139q0 70 34 94t114.5 55.5t105.5 71.5q16 32 22 82t8 108.5t3 88.5q8 320 8 475v504q0 155 -8 475q-1 33 -3 90.5t-8.5 107.5t-21.5 81q-26 36 -104 65t-114 55.5t-36 100.5q0 139 242 139h786q107 0 172 -26.5t70 -112.5q0 -110 -135 -156q-84 -25 -114.5 -70.5 t-33 -115.5t-4.5 -158q-8 -320 -8 -475v-504q0 -91 6.5 -264.5t6.5 -288.5q0 -140 32 -201q24 -41 103.5 -72.5t113 -55t33.5 -93.5q0 -86 -67.5 -112.5t-174.5 -26.5h-786q-106 0 -170.5 26t-71.5 113zM348 3572q0 86 164 86h311q103 0 141 -28t64 -128q22 -69 44 -136 t38.5 -131.5t16.5 -105.5q0 -135 -82 -135q-43 0 -135 61l-455 357q-107 78 -107 160z" />
<glyph unicode="&#xcd;" horiz-adv-x="1462" d="M102 139q0 70 34 94t114.5 55.5t105.5 71.5q16 32 22 82t8 108.5t3 88.5q8 320 8 475v504q0 155 -8 475q-1 33 -3 90.5t-8.5 107.5t-21.5 81q-26 36 -104 65t-114 55.5t-36 100.5q0 139 242 139h786q107 0 172 -26.5t70 -112.5q0 -110 -135 -156q-84 -25 -114.5 -70.5 t-33 -115.5t-4.5 -158q-8 -320 -8 -475v-504q0 -91 6.5 -264.5t6.5 -288.5q0 -140 32 -201q24 -41 103.5 -72.5t113 -55t33.5 -93.5q0 -86 -67.5 -112.5t-174.5 -26.5h-786q-106 0 -170.5 26t-71.5 113zM348 3109q0 42 17 82l86 315q27 99 63.5 125.5t140.5 26.5h308 q146 0 159 -62q0 -4 2 -14t2 -15q0 -71 -102 -155l-455 -352q-73 -66 -135 -66q-39 0 -62.5 36.5t-23.5 78.5z" />
<glyph unicode="&#xce;" horiz-adv-x="1421" d="M74 3121q0 95 127 184l352 279q113 86 185 86q57 0 223 -105.5t302.5 -233t137.5 -198.5q0 -50 -31.5 -89.5t-78.5 -45.5q-87 0 -180.5 50.5t-186 100.5t-178.5 50q-66 0 -126 -25.5t-144.5 -77.5t-141.5 -77t-125 -25q-56 0 -95.5 37t-39.5 90zM102 139q0 70 34 94 t114.5 55.5t105.5 71.5q16 32 22 82t8 108.5t3 88.5q8 320 8 475v504q0 155 -8 475q-1 33 -3 90.5t-8.5 107.5t-21.5 81q-26 36 -104 65t-114 55.5t-36 100.5q0 139 242 139h786q107 0 172 -26.5t70 -112.5q0 -110 -135 -156q-84 -25 -114.5 -70.5t-33 -115.5t-4.5 -158 q-8 -320 -8 -475v-504q0 -91 6.5 -264.5t6.5 -288.5q0 -140 32 -201q24 -41 103.5 -72.5t113 -55t33.5 -93.5q0 -86 -67.5 -112.5t-174.5 -26.5h-786q-106 0 -170.5 26t-71.5 113z" />
<glyph unicode="&#xcf;" horiz-adv-x="1413" d="M-70 3272q0 148 175 246.5t333 98.5q81 0 141 -50.5t60 -130.5q0 -104 -81 -186.5t-200 -128t-219 -45.5q-85 0 -147 58.5t-62 137.5zM102 139q0 70 34 94t114.5 55.5t105.5 71.5q16 32 22 82t8 108.5t3 88.5q8 320 8 475v504q0 155 -8 475q-1 33 -3 90.5t-8.5 107.5 t-21.5 81q-26 36 -104 65t-114 55.5t-36 100.5q0 139 242 139h786q107 0 172 -26.5t70 -112.5q0 -110 -135 -156q-84 -25 -114.5 -70.5t-33 -115.5t-4.5 -158q-8 -320 -8 -475v-504q0 -91 6.5 -264.5t6.5 -288.5q0 -140 32 -201q24 -41 103.5 -72.5t113 -55t33.5 -93.5 q0 -86 -67.5 -112.5t-174.5 -26.5h-786q-106 0 -170.5 26t-71.5 113zM831 3272q0 148 175 246.5t333 98.5q81 0 141 -50.5t60 -130.5q0 -104 -81 -186.5t-200 -128t-219 -45.5q-85 0 -147 58.5t-62 137.5z" />
<glyph unicode="&#xd1;" horiz-adv-x="3138" d="M98 135q0 68 34.5 93t114.5 57.5t105 70.5q41 78 41 537v217v508q0 143 -4 213q-1 59 -3.5 195t-9.5 224.5t-24 116.5q-25 36 -104 69.5t-114.5 60t-35.5 96.5q0 85 68 110t174 25h627q111 0 168 -28.5t143 -114.5l930 -934q74 -78 114 -78q45 5 45 86q0 84 2.5 234.5 t2.5 277.5q0 167 -45 211t-141.5 92t-96.5 131q0 123 176 123h565q109 0 173 -24.5t69 -110.5q0 -71 -29.5 -91t-113.5 -54.5t-107 -80.5q-45 -69 -45 -483q0 -62 2 -154t2 -112v-1352q0 -30 2 -94t2 -94q0 -69 -78 -78q-6 0 -59 -4t-88 -4q-187 0 -193 78q0 176 -42 290.5 t-158 233.5l-1188 1253q-8 7 -29 28t-36.5 31.5t-32.5 10.5q-54 0 -54 -102q0 -26 -2 -77t-2 -75v-553q0 -52 -6 -186t-6 -207q0 -233 53 -361q26 -40 103.5 -70t112 -54.5t34.5 -96.5q0 -85 -67.5 -110t-174.5 -25h-532q-109 0 -173 24.5t-69 110.5zM860 3207 q0 164 108 293t269 129q93 0 176 -22t197.5 -64.5t184 -62t138.5 -19.5q39 0 64.5 20t53.5 60.5t49 61t59 26.5q60 0 93.5 -44.5t33.5 -107.5q0 -161 -108.5 -295.5t-264.5 -134.5q-78 0 -150.5 19.5t-191.5 62.5t-188 62.5t-146 23.5q-51 0 -92.5 -40l-83 -80t-90.5 -40 q-54 0 -82.5 46t-28.5 106z" />
<glyph unicode="&#xd2;" horiz-adv-x="3273" d="M94 1192q0 433 200 800.5t554 580t794 212.5q302 0 582 -119t496 -330t337 -487t121 -579q0 -322 -119.5 -572.5t-331 -416.5t-488.5 -250t-588 -84q-718 0 -1106 303q-214 169 -332.5 417.5t-118.5 524.5zM934 1298q0 -249 64.5 -472t221.5 -367t414 -144 q364 0 538.5 275t174.5 659q0 182 -35.5 386.5t-115.5 392t-219 309t-335 121.5q-262 0 -420.5 -186t-223 -451t-64.5 -523zM1245 3576q0 86 164 86h311q103 0 141 -28t64 -128q22 -69 44 -136t38.5 -131.5t16.5 -105.5q0 -135 -82 -135q-43 0 -135 61l-455 357 q-107 78 -107 160z" />
<glyph unicode="&#xd3;" horiz-adv-x="3273" d="M94 1192q0 433 200 800.5t554 580t794 212.5q302 0 582 -119t496 -330t337 -487t121 -579q0 -322 -119.5 -572.5t-331 -416.5t-488.5 -250t-588 -84q-718 0 -1106 303q-214 169 -332.5 417.5t-118.5 524.5zM934 1298q0 -249 64.5 -472t221.5 -367t414 -144 q364 0 538.5 275t174.5 659q0 182 -35.5 386.5t-115.5 392t-219 309t-335 121.5q-262 0 -420.5 -186t-223 -451t-64.5 -523zM1249 3113q0 42 17 82l86 315q27 99 63.5 125.5t140.5 26.5h308q146 0 159 -62q0 -4 2 -14t2 -15q0 -71 -102 -155l-455 -352q-73 -66 -135 -66 q-39 0 -62.5 36.5t-23.5 78.5z" />
<glyph unicode="&#xd4;" horiz-adv-x="3273" d="M94 1192q0 433 200 800.5t554 580t794 212.5q302 0 582 -119t496 -330t337 -487t121 -579q0 -322 -119.5 -572.5t-331 -416.5t-488.5 -250t-588 -84q-718 0 -1106 303q-214 169 -332.5 417.5t-118.5 524.5zM934 1298q0 -249 64.5 -472t221.5 -367t414 -144 q364 0 538.5 275t174.5 659q0 182 -35.5 386.5t-115.5 392t-219 309t-335 121.5q-262 0 -420.5 -186t-223 -451t-64.5 -523zM971 3121q0 95 127 184l352 279q113 86 185 86q57 0 223 -105.5t302.5 -233t137.5 -198.5q0 -50 -31.5 -89.5t-78.5 -45.5q-87 0 -180.5 50.5 t-186 100.5t-178.5 50q-66 0 -126 -25.5t-144.5 -77.5t-141.5 -77t-125 -25q-56 0 -95.5 37t-39.5 90z" />
<glyph unicode="&#xd5;" horiz-adv-x="3273" d="M94 1192q0 433 200 800.5t554 580t794 212.5q302 0 582 -119t496 -330t337 -487t121 -579q0 -322 -119.5 -572.5t-331 -416.5t-488.5 -250t-588 -84q-718 0 -1106 303q-214 169 -332.5 417.5t-118.5 524.5zM921 3211q0 164 108 293t269 129q93 0 176 -22t197.5 -64.5 t184 -62t138.5 -19.5q39 0 64.5 20t53.5 60.5t49 61t59 26.5q60 0 93.5 -44.5t33.5 -107.5q0 -161 -108.5 -295.5t-264.5 -134.5q-78 0 -150.5 19.5t-191.5 62.5t-188 62.5t-146 23.5q-51 0 -92.5 -40l-83 -80t-90.5 -40q-54 0 -82.5 46t-28.5 106zM934 1298 q0 -249 64.5 -472t221.5 -367t414 -144q364 0 538.5 275t174.5 659q0 182 -35.5 386.5t-115.5 392t-219 309t-335 121.5q-262 0 -420.5 -186t-223 -451t-64.5 -523z" />
<glyph unicode="&#xd6;" horiz-adv-x="3273" d="M94 1192q0 433 200 800.5t554 580t794 212.5q302 0 582 -119t496 -330t337 -487t121 -579q0 -322 -119.5 -572.5t-331 -416.5t-488.5 -250t-588 -84q-718 0 -1106 303q-214 169 -332.5 417.5t-118.5 524.5zM827 3272q0 148 175 246.5t333 98.5q81 0 141 -50.5t60 -130.5 q0 -104 -81 -186.5t-200 -128t-219 -45.5q-85 0 -147 58.5t-62 137.5zM934 1298q0 -249 64.5 -472t221.5 -367t414 -144q364 0 538.5 275t174.5 659q0 182 -35.5 386.5t-115.5 392t-219 309t-335 121.5q-262 0 -420.5 -186t-223 -451t-64.5 -523zM1728 3272q0 148 175 246.5 t333 98.5q81 0 141 -50.5t60 -130.5q0 -104 -81 -186.5t-200 -128t-219 -45.5q-85 0 -147 58.5t-62 137.5z" />
<glyph unicode="&#xd8;" horiz-adv-x="3273" d="M94 1192q0 433 200 800.5t554 580t794 212.5q516 0 922 -307l189 184q89 91 163 91q57 0 98.5 -39t41.5 -97q0 -73 -82 -147l-193 -189q127 -135 217 -299.5t135 -343.5t45 -368q0 -318 -120 -567t-334.5 -418.5t-488.5 -253.5t-584 -84q-647 0 -1020 241q-3 -3 -82 -88 t-139 -125.5t-119 -40.5q-52 0 -90 37t-41 90q0 62 37.5 118t89 101t114.5 101q-150 169 -228.5 378.5t-78.5 432.5zM934 1298q0 -60 16.5 -179.5t16.5 -188.5l1196 1159q-116 173 -234.5 271t-286.5 98q-262 0 -420.5 -186t-223 -451t-64.5 -523zM1081 627 q197 -312 553 -312q366 0 539.5 274.5t173.5 659.5q0 282 -66 529v16z" />
<glyph unicode="&#xd9;" horiz-adv-x="2814" d="M123 2576q0 71 51.5 111.5t124.5 40.5h827q101 0 163.5 -26.5t62.5 -112.5q0 -113 -131 -135q-97 -30 -132 -81.5t-39.5 -132.5t-9.5 -184l-49 -909q-8 -188 -8 -275q0 -573 586 -573q288 0 453 129t165 408q0 90 -8 262l-53 872q-10 288 -49 406q-14 38 -43.5 55 t-91.5 42.5t-90.5 53.5t-28.5 78q0 59 48.5 91t110.5 32h598q164 0 164 -123q0 -69 -28.5 -95t-87 -41t-90 -40.5t-35.5 -93.5q0 -13 -2 -35t-2 -35q0 -20 1.5 -48t5 -63t5.5 -59.5t4 -62.5l74 -955q8 -82 8 -246q0 -282 -81.5 -457t-231.5 -266t-355 -124t-491 -33 q-312 0 -575 71t-430 254.5t-167 497.5q0 54 8.5 160.5t8.5 171.5l82 1032q0 15 4 62t4 69q0 82 -33 119t-96.5 62.5t-92 47.5t-28.5 78zM1028 3572q0 86 164 86h311q103 0 141 -28t64 -128q22 -69 44 -136t38.5 -131.5t16.5 -105.5q0 -135 -82 -135q-43 0 -135 61l-455 357 q-107 78 -107 160z" />
<glyph unicode="&#xda;" horiz-adv-x="2814" d="M123 2576q0 71 51.5 111.5t124.5 40.5h827q101 0 163.5 -26.5t62.5 -112.5q0 -113 -131 -135q-97 -30 -132 -81.5t-39.5 -132.5t-9.5 -184l-49 -909q-8 -188 -8 -275q0 -573 586 -573q288 0 453 129t165 408q0 90 -8 262l-53 872q-10 288 -49 406q-14 38 -43.5 55 t-91.5 42.5t-90.5 53.5t-28.5 78q0 59 48.5 91t110.5 32h598q164 0 164 -123q0 -69 -28.5 -95t-87 -41t-90 -40.5t-35.5 -93.5q0 -13 -2 -35t-2 -35q0 -20 1.5 -48t5 -63t5.5 -59.5t4 -62.5l74 -955q8 -82 8 -246q0 -282 -81.5 -457t-231.5 -266t-355 -124t-491 -33 q-312 0 -575 71t-430 254.5t-167 497.5q0 54 8.5 160.5t8.5 171.5l82 1032q0 15 4 62t4 69q0 82 -33 119t-96.5 62.5t-92 47.5t-28.5 78zM1032 3109q0 42 17 82l86 315q27 99 63.5 125.5t140.5 26.5h308q146 0 159 -62q0 -4 2 -14t2 -15q0 -71 -102 -155l-455 -352 q-73 -66 -135 -66q-39 0 -62.5 36.5t-23.5 78.5z" />
<glyph unicode="&#xdb;" horiz-adv-x="2814" d="M123 2576q0 71 51.5 111.5t124.5 40.5h827q101 0 163.5 -26.5t62.5 -112.5q0 -113 -131 -135q-97 -30 -132 -81.5t-39.5 -132.5t-9.5 -184l-49 -909q-8 -188 -8 -275q0 -573 586 -573q288 0 453 129t165 408q0 90 -8 262l-53 872q-10 288 -49 406q-14 38 -43.5 55 t-91.5 42.5t-90.5 53.5t-28.5 78q0 59 48.5 91t110.5 32h598q164 0 164 -123q0 -69 -28.5 -95t-87 -41t-90 -40.5t-35.5 -93.5q0 -13 -2 -35t-2 -35q0 -20 1.5 -48t5 -63t5.5 -59.5t4 -62.5l74 -955q8 -82 8 -246q0 -282 -81.5 -457t-231.5 -266t-355 -124t-491 -33 q-312 0 -575 71t-430 254.5t-167 497.5q0 54 8.5 160.5t8.5 171.5l82 1032q0 15 4 62t4 69q0 82 -33 119t-96.5 62.5t-92 47.5t-28.5 78zM754 3117q0 95 127 184l352 279q113 86 185 86q57 0 223 -105.5t302.5 -233t137.5 -198.5q0 -50 -31.5 -89.5t-78.5 -45.5 q-87 0 -180.5 50.5t-186 100.5t-178.5 50q-66 0 -126 -25.5t-144.5 -77.5t-141.5 -77t-125 -25q-56 0 -95.5 37t-39.5 90z" />
<glyph unicode="&#xdc;" horiz-adv-x="2814" d="M123 2576q0 71 51.5 111.5t124.5 40.5h827q101 0 163.5 -26.5t62.5 -112.5q0 -113 -131 -135q-97 -30 -132 -81.5t-39.5 -132.5t-9.5 -184l-49 -909q-8 -188 -8 -275q0 -573 586 -573q288 0 453 129t165 408q0 90 -8 262l-53 872q-10 288 -49 406q-14 38 -43.5 55 t-91.5 42.5t-90.5 53.5t-28.5 78q0 59 48.5 91t110.5 32h598q164 0 164 -123q0 -69 -28.5 -95t-87 -41t-90 -40.5t-35.5 -93.5q0 -13 -2 -35t-2 -35q0 -20 1.5 -48t5 -63t5.5 -59.5t4 -62.5l74 -955q8 -82 8 -246q0 -282 -81.5 -457t-231.5 -266t-355 -124t-491 -33 q-312 0 -575 71t-430 254.5t-167 497.5q0 54 8.5 160.5t8.5 171.5l82 1032q0 15 4 62t4 69q0 82 -33 119t-96.5 62.5t-92 47.5t-28.5 78zM705 3268q0 148 175 246.5t333 98.5q81 0 141 -50.5t60 -130.5q0 -104 -81 -186.5t-200 -128t-219 -45.5q-85 0 -147 58.5t-62 137.5z M1606 3268q0 148 175 246.5t333 98.5q81 0 141 -50.5t60 -130.5q0 -104 -81 -186.5t-200 -128t-219 -45.5q-85 0 -147 58.5t-62 137.5z" />
<glyph unicode="&#xdf;" horiz-adv-x="2327" d="M57 115q0 73 79 111.5t127 110.5t48 306q0 45 -2 115t-2 90v1085q0 411 173.5 629.5t572.5 218.5q208 0 395 -80t301.5 -235.5t114.5 -368.5q0 -302 -283 -450q221 -34 372.5 -140t227.5 -276t76 -395q0 -223 -97.5 -422t-276 -319t-404.5 -120q-91 0 -225 27t-237.5 87 t-103.5 149q0 204 62 204q20 0 24 -4q26 -11 75 -39.5t86.5 -39.5t105.5 -11q134 0 234.5 102t154 249t53.5 276q0 202 -112 326t-310 133q-39 0 -117 -2t-116 -2q-51 0 -81 30t-30 80q0 61 54 84t143 39q127 34 194.5 184.5t67.5 298.5q0 134 -79 237t-208 103 q-160 0 -209 -128t-49 -330v-82v-1741v-99q-3 -68 -41.5 -87t-109.5 -19h-33h-418q-187 0 -197 115z" />
<glyph unicode="&#xe0;" horiz-adv-x="2257" d="M94 512q0 204 137 347.5t341.5 213.5t402.5 70q86 0 258 -8q-71 193 -158.5 299t-255.5 106q-108 0 -177.5 -32t-161 -90t-136.5 -58q-35 0 -61 22t-29 56q0 129 130.5 226t309.5 148.5t301 51.5q340 0 513.5 -173t277.5 -524l192 -626q30 -98 91 -180t139 -82 q45 0 94 49q61 -61 61 -140q0 -121 -125 -171t-268 -50q-151 0 -257.5 55.5t-192.5 178.5q-367 -234 -746 -234q-172 0 -327.5 61.5t-254 185t-98.5 298.5zM696 610q0 -148 114.5 -242t262.5 -94q120 0 224 46.5t104 150.5q0 108 -90 307q-50 131 -230 131 q-150 0 -267.5 -80t-117.5 -219zM737 2671q0 86 164 86h311q103 0 141 -28t64 -128q22 -69 44 -136t38.5 -131.5t16.5 -105.5q0 -135 -82 -135q-43 0 -135 61l-455 357q-107 78 -107 160z" />
<glyph unicode="&#xe1;" horiz-adv-x="2257" d="M94 512q0 204 137 347.5t341.5 213.5t402.5 70q86 0 258 -8q-71 193 -158.5 299t-255.5 106q-108 0 -177.5 -32t-161 -90t-136.5 -58q-35 0 -61 22t-29 56q0 129 130.5 226t309.5 148.5t301 51.5q340 0 513.5 -173t277.5 -524l192 -626q30 -98 91 -180t139 -82 q45 0 94 49q61 -61 61 -140q0 -121 -125 -171t-268 -50q-151 0 -257.5 55.5t-192.5 178.5q-367 -234 -746 -234q-172 0 -327.5 61.5t-254 185t-98.5 298.5zM696 610q0 -148 114.5 -242t262.5 -94q120 0 224 46.5t104 150.5q0 108 -90 307q-50 131 -230 131 q-150 0 -267.5 -80t-117.5 -219zM741 2208q0 42 17 82l86 315q27 99 63.5 125.5t140.5 26.5h308q146 0 159 -62q0 -4 2 -14t2 -15q0 -71 -102 -155l-455 -352q-73 -66 -135 -66q-39 0 -62.5 36.5t-23.5 78.5z" />
<glyph unicode="&#xe2;" horiz-adv-x="2257" d="M94 512q0 204 137 347.5t341.5 213.5t402.5 70q86 0 258 -8q-71 193 -158.5 299t-255.5 106q-108 0 -177.5 -32t-161 -90t-136.5 -58q-35 0 -61 22t-29 56q0 129 130.5 226t309.5 148.5t301 51.5q340 0 513.5 -173t277.5 -524l192 -626q30 -98 91 -180t139 -82 q45 0 94 49q61 -61 61 -140q0 -121 -125 -171t-268 -50q-151 0 -257.5 55.5t-192.5 178.5q-367 -234 -746 -234q-172 0 -327.5 61.5t-254 185t-98.5 298.5zM463 2220q0 95 127 184l352 279q113 86 185 86q57 0 223 -105.5t302.5 -233t137.5 -198.5q0 -50 -31.5 -89.5 t-78.5 -45.5q-87 0 -180.5 50.5t-186 100.5t-178.5 50q-66 0 -126 -25.5t-144.5 -77.5t-141.5 -77t-125 -25q-56 0 -95.5 37t-39.5 90zM696 610q0 -148 114.5 -242t262.5 -94q120 0 224 46.5t104 150.5q0 108 -90 307q-50 131 -230 131q-150 0 -267.5 -80t-117.5 -219z" />
<glyph unicode="&#xe3;" horiz-adv-x="2257" d="M94 512q0 204 137 347.5t341.5 213.5t402.5 70q86 0 258 -8q-71 193 -158.5 299t-255.5 106q-108 0 -177.5 -32t-161 -90t-136.5 -58q-35 0 -61 22t-29 56q0 129 130.5 226t309.5 148.5t301 51.5q340 0 513.5 -173t277.5 -524l192 -626q30 -98 91 -180t139 -82 q45 0 94 49q61 -61 61 -140q0 -121 -125 -171t-268 -50q-151 0 -257.5 55.5t-192.5 178.5q-367 -234 -746 -234q-172 0 -327.5 61.5t-254 185t-98.5 298.5zM417 2306q0 164 108 293t269 129q93 0 176 -22t197.5 -64.5t184 -62t138.5 -19.5q39 0 64.5 20t53.5 60.5t49 61 t59 26.5q60 0 93.5 -44.5t33.5 -107.5q0 -161 -108.5 -295.5t-264.5 -134.5q-78 0 -150.5 19.5t-191.5 62.5t-188 62.5t-146 23.5q-51 0 -92.5 -40l-83 -80t-90.5 -40q-54 0 -82.5 46t-28.5 106zM696 610q0 -148 114.5 -242t262.5 -94q120 0 224 46.5t104 150.5 q0 108 -90 307q-50 131 -230 131q-150 0 -267.5 -80t-117.5 -219z" />
<glyph unicode="&#xe4;" horiz-adv-x="2257" d="M94 512q0 204 137 347.5t341.5 213.5t402.5 70q86 0 258 -8q-71 193 -158.5 299t-255.5 106q-108 0 -177.5 -32t-161 -90t-136.5 -58q-35 0 -61 22t-29 56q0 129 130.5 226t309.5 148.5t301 51.5q340 0 513.5 -173t277.5 -524l192 -626q30 -98 91 -180t139 -82 q45 0 94 49q61 -61 61 -140q0 -121 -125 -171t-268 -50q-151 0 -257.5 55.5t-192.5 178.5q-367 -234 -746 -234q-172 0 -327.5 61.5t-254 185t-98.5 298.5zM246 2367q0 148 175 246.5t333 98.5q81 0 141 -50.5t60 -130.5q0 -104 -81 -186.5t-200 -128t-219 -45.5 q-85 0 -147 58.5t-62 137.5zM696 610q0 -148 114.5 -242t262.5 -94q120 0 224 46.5t104 150.5q0 108 -90 307q-50 131 -230 131q-150 0 -267.5 -80t-117.5 -219zM1147 2367q0 148 175 246.5t333 98.5q81 0 141 -50.5t60 -130.5q0 -104 -81 -186.5t-200 -128t-219 -45.5 q-85 0 -147 58.5t-62 137.5z" />
<glyph unicode="&#xe5;" horiz-adv-x="2257" d="M94 512q0 204 137 347.5t341.5 213.5t402.5 70q86 0 258 -8q-71 193 -158.5 299t-255.5 106q-108 0 -177.5 -32t-161 -90t-136.5 -58q-35 0 -61 22t-29 56q0 129 130.5 226t309.5 148.5t301 51.5q340 0 513.5 -173t277.5 -524l192 -626q30 -98 91 -180t139 -82 q45 0 94 49q61 -61 61 -140q0 -121 -125 -171t-268 -50q-151 0 -257.5 55.5t-192.5 178.5q-367 -234 -746 -234q-172 0 -327.5 61.5t-254 185t-98.5 298.5zM615 2441q0 115 54 206.5t149 141.5t210 50q189 0 326 -126t137 -313q0 -173 -127 -275t-303 -102 q-185 0 -315.5 117.5t-130.5 300.5zM696 610q0 -148 114.5 -242t262.5 -94q120 0 224 46.5t104 150.5q0 108 -90 307q-50 131 -230 131q-150 0 -267.5 -80t-117.5 -219zM901 2540q0 -97 52 -231t133 -134q54 0 78 45.5t24 101.5q0 110 -44.5 237.5t-131.5 127.5 q-54 0 -82.5 -46.5t-28.5 -100.5z" />
<glyph unicode="&#xe6;" horiz-adv-x="3244" d="M94 524q0 226 156.5 369t382 204.5t444.5 61.5q13 0 35 -2t35 -2q-44 180 -134 280.5t-259 100.5q-85 0 -134 -25t-160.5 -94t-156.5 -69q-33 0 -55.5 28.5t-22.5 61.5q0 127 134 221.5t314 145t298 50.5q438 0 622 -225q329 209 594 209q434 0 688 -250 q209 -221 209 -327q0 -47 -27.5 -69.5t-86.5 -53.5l-1004 -496q102 -155 230.5 -229t306.5 -74q129 0 239.5 44t178 91t155 115.5t111.5 68.5q32 0 61 -30t29 -64q0 -153 -295 -348q-360 -246 -762 -246q-392 0 -676 258q-394 -258 -790 -258q-280 0 -470 142t-190 411z M692 598q0 -140 107 -221.5t250 -81.5q107 0 215 44t108 132q0 25 -4 33q-5 44 -26.5 109t-55 146t-61.5 150q-41 13 -127 13q-99 0 -192.5 -37.5t-153.5 -112t-60 -174.5zM1769 1274q0 -106 39.5 -233.5t116.5 -139.5q32 0 172 53l221 107q136 60 136 131q0 96 -62 182 t-157 138.5t-187 52.5q-113 0 -196 -89t-83 -202z" />
<glyph unicode="&#xe7;" horiz-adv-x="1995" d="M78 889q0 287 157.5 507t415 339.5t537.5 119.5q111 0 292 -33.5t317 -97.5t136 -151q0 -27 -20 -62l-176 -376q-44 -78 -90 -78q-51 0 -120.5 177.5t-152.5 288.5t-260 111q-215 0 -310 -203t-95 -440q0 -178 65.5 -347.5t196 -277.5t315.5 -108q165 0 270.5 67 t214 175.5t158.5 117.5q33 0 62 -20t32 -53q0 -133 -119.5 -254t-290 -202.5t-306.5 -100.5l-119 -213q152 0 254 -80.5t102 -231.5q0 -162 -132 -257t-302 -95q-101 0 -216.5 47.5t-115.5 132.5q0 30 21.5 60.5t48.5 30.5l4 -5q30 -7 89.5 -39t98.5 -34l4 4 q66 0 121.5 58.5t55.5 125.5q0 63 -47.5 106.5t-112.5 49.5q-15 0 -43 -2t-43 -2q-62 0 -62 53q0 25 25.5 76t65 117.5t49.5 84.5q-425 27 -700 265t-275 649z" />
<glyph unicode="&#xe8;" horiz-adv-x="2052" d="M78 918q0 250 136.5 464.5t360.5 341.5t474 127q139 0 272 -37t249.5 -111.5t203.5 -178.5q6 -9 55.5 -77.5t83 -129t33.5 -96.5q0 -29 -86.5 -75.5t-167.5 -76.5l-881 -393q74 -174 217.5 -273.5t331.5 -99.5q149 0 266 63t225.5 153t130.5 91q41 0 72 -26t31 -68 q0 -102 -193 -270q-362 -275 -843 -275q-273 0 -496 119t-349 335.5t-126 492.5zM606 2671q0 86 164 86h311q103 0 141 -28t64 -128q22 -69 44 -136t38.5 -131.5t16.5 -105.5q0 -135 -82 -135q-43 0 -135 61l-455 357q-107 78 -107 160zM618 1266q0 -99 30.5 -236t96.5 -137 q26 0 66 20l377 168q22 11 45.5 22t41 25t23.5 31q0 2 2.5 11.5t2.5 13.5q0 84 -64 178.5t-158.5 158.5t-179.5 64q-124 0 -203.5 -97t-79.5 -222z" />
<glyph unicode="&#xe9;" horiz-adv-x="2052" d="M78 918q0 250 136.5 464.5t360.5 341.5t474 127q139 0 272 -37t249.5 -111.5t203.5 -178.5q6 -9 55.5 -77.5t83 -129t33.5 -96.5q0 -29 -86.5 -75.5t-167.5 -76.5l-881 -393q74 -174 217.5 -273.5t331.5 -99.5q149 0 266 63t225.5 153t130.5 91q41 0 72 -26t31 -68 q0 -102 -193 -270q-362 -275 -843 -275q-273 0 -496 119t-349 335.5t-126 492.5zM618 1266q0 -99 30.5 -236t96.5 -137q26 0 66 20l377 168q22 11 45.5 22t41 25t23.5 31q0 2 2.5 11.5t2.5 13.5q0 84 -64 178.5t-158.5 158.5t-179.5 64q-124 0 -203.5 -97t-79.5 -222z M815 2208q0 42 17 82l86 315q27 99 63.5 125.5t140.5 26.5h308q146 0 159 -62q0 -4 2 -14t2 -15q0 -71 -102 -155l-455 -352q-73 -66 -135 -66q-39 0 -62.5 36.5t-23.5 78.5z" />
<glyph unicode="&#xea;" horiz-adv-x="2052" d="M78 918q0 250 136.5 464.5t360.5 341.5t474 127q139 0 272 -37t249.5 -111.5t203.5 -178.5q6 -9 55.5 -77.5t83 -129t33.5 -96.5q0 -29 -86.5 -75.5t-167.5 -76.5l-881 -393q74 -174 217.5 -273.5t331.5 -99.5q149 0 266 63t225.5 153t130.5 91q41 0 72 -26t31 -68 q0 -102 -193 -270q-362 -275 -843 -275q-273 0 -496 119t-349 335.5t-126 492.5zM356 2220q0 95 127 184l352 279q113 86 185 86q57 0 223 -105.5t302.5 -233t137.5 -198.5q0 -50 -31.5 -89.5t-78.5 -45.5q-87 0 -180.5 50.5t-186 100.5t-178.5 50q-66 0 -126 -25.5 t-144.5 -77.5t-141.5 -77t-125 -25q-56 0 -95.5 37t-39.5 90zM618 1266q0 -99 30.5 -236t96.5 -137q26 0 66 20l377 168q22 11 45.5 22t41 25t23.5 31q0 2 2.5 11.5t2.5 13.5q0 84 -64 178.5t-158.5 158.5t-179.5 64q-124 0 -203.5 -97t-79.5 -222z" />
<glyph unicode="&#xeb;" horiz-adv-x="2052" d="M78 918q0 250 136.5 464.5t360.5 341.5t474 127q139 0 272 -37t249.5 -111.5t203.5 -178.5q6 -9 55.5 -77.5t83 -129t33.5 -96.5q0 -29 -86.5 -75.5t-167.5 -76.5l-881 -393q74 -174 217.5 -273.5t331.5 -99.5q149 0 266 63t225.5 153t130.5 91q41 0 72 -26t31 -68 q0 -102 -193 -270q-362 -275 -843 -275q-273 0 -496 119t-349 335.5t-126 492.5zM217 2367q0 148 175 246.5t333 98.5q81 0 141 -50.5t60 -130.5q0 -104 -81 -186.5t-200 -128t-219 -45.5q-85 0 -147 58.5t-62 137.5zM618 1266q0 -99 30.5 -236t96.5 -137q26 0 66 20 l377 168q22 11 45.5 22t41 25t23.5 31q0 2 2.5 11.5t2.5 13.5q0 84 -64 178.5t-158.5 158.5t-179.5 64q-124 0 -203.5 -97t-79.5 -222zM1118 2367q0 148 175 246.5t333 98.5q81 0 141 -50.5t60 -130.5q0 -104 -81 -186.5t-200 -128t-219 -45.5q-85 0 -147 58.5t-62 137.5z " />
<glyph unicode="&#xec;" horiz-adv-x="1147" d="M53 115q0 54 27 77.5t88 56t82 62.5q53 68 53 377v451q0 162 -35 197t-102.5 54.5t-67.5 88.5t115 123l487 213q29 16 74 24q78 0 78 -135v-856v-152q0 -193 25 -319q10 -40 38 -64t80.5 -56.5t77.5 -59.5t25 -70q0 -127 -193 -127h-655q-188 0 -197 115zM184 2671 q0 86 164 86h311q103 0 141 -28t64 -128q22 -69 44 -136t38.5 -131.5t16.5 -105.5q0 -135 -82 -135q-43 0 -135 61l-455 357q-107 78 -107 160z" />
<glyph unicode="&#xed;" horiz-adv-x="1147" d="M53 115q0 54 27 77.5t88 56t82 62.5q53 68 53 377v451q0 162 -35 197t-102.5 54.5t-67.5 88.5t115 123l487 213q29 16 74 24q78 0 78 -135v-856v-152q0 -193 25 -319q10 -40 38 -64t80.5 -56.5t77.5 -59.5t25 -70q0 -127 -193 -127h-655q-188 0 -197 115zM188 2208 q0 42 17 82l86 315q27 99 63.5 125.5t140.5 26.5h308q146 0 159 -62q0 -4 2 -14t2 -15q0 -71 -102 -155l-455 -352q-73 -66 -135 -66q-39 0 -62.5 36.5t-23.5 78.5z" />
<glyph unicode="&#xee;" horiz-adv-x="1090" d="M-90 2220q0 95 127 184l352 279q113 86 185 86q57 0 223 -105.5t302.5 -233t137.5 -198.5q0 -50 -31.5 -89.5t-78.5 -45.5q-87 0 -180.5 50.5t-186 100.5t-178.5 50q-66 0 -126 -25.5t-144.5 -77.5t-141.5 -77t-125 -25q-56 0 -95.5 37t-39.5 90zM53 115q0 54 27 77.5 t88 56t82 62.5q53 68 53 377v451q0 162 -35 197t-102.5 54.5t-67.5 88.5t115 123l487 213q29 16 74 24q78 0 78 -135v-856v-152q0 -193 25 -319q10 -40 38 -64t80.5 -56.5t77.5 -59.5t25 -70q0 -127 -193 -127h-655q-188 0 -197 115z" />
<glyph unicode="&#xef;" horiz-adv-x="1147" d="M-217 2367q0 148 175 246.5t333 98.5q81 0 141 -50.5t60 -130.5q0 -104 -81 -186.5t-200 -128t-219 -45.5q-85 0 -147 58.5t-62 137.5zM53 115q0 54 27 77.5t88 56t82 62.5q53 68 53 377v451q0 162 -35 197t-102.5 54.5t-67.5 88.5t115 123l487 213q29 16 74 24 q78 0 78 -135v-856v-152q0 -193 25 -319q10 -40 38 -64t80.5 -56.5t77.5 -59.5t25 -70q0 -127 -193 -127h-655q-188 0 -197 115zM684 2367q0 148 175 246.5t333 98.5q81 0 141 -50.5t60 -130.5q0 -104 -81 -186.5t-200 -128t-219 -45.5q-85 0 -147 58.5t-62 137.5z" />
<glyph unicode="&#xf1;" horiz-adv-x="2331" d="M70 1393q0 30 24 63.5t49 46.5l562 295q24 18 61 25q98 0 98 -156v-127q151 139 254 204.5t242 65.5q416 0 573 -585l185 -656q50 -170 79 -224.5t138 -127.5q61 -40 61 -98q0 -119 -164 -119h-729q-58 0 -102.5 27.5t-44.5 83.5q0 44 25.5 71t80 62.5t83 69t28.5 87.5 q0 53 -17 115l-143 549q-89 385 -295 385q-142 0 -198 -128t-56 -290v-266q0 -241 25 -397q11 -39 34 -61t74 -58.5t76 -66.5t25 -72q0 -111 -185 -111h-651q-180 0 -180 111q0 54 72.5 110.5t118.5 141t46 292.5q0 63 -2 195t-2 194q0 146 -45 190t-122.5 74.5t-77.5 84.5z M463 2306q0 164 108 293t269 129q93 0 176 -22t197.5 -64.5t184 -62t138.5 -19.5q39 0 64.5 20t53.5 60.5t49 61t59 26.5q60 0 93.5 -44.5t33.5 -107.5q0 -161 -108.5 -295.5t-264.5 -134.5q-78 0 -150.5 19.5t-191.5 62.5t-188 62.5t-146 23.5q-51 0 -92.5 -40l-83 -80 t-90.5 -40q-54 0 -82.5 46t-28.5 106z" />
<glyph unicode="&#xf2;" horiz-adv-x="2298" d="M78 918q0 265 138 480.5t369 336t492 120.5q206 0 411 -74t370.5 -209t263.5 -322t98 -402q0 -297 -157.5 -494.5t-413 -290t-543.5 -92.5q-306 0 -538 107t-361 321t-129 519zM623 1270q0 -192 87.5 -433.5t247 -410t361.5 -168.5q149 0 230 104.5t81 260.5 q0 127 -58 298t-157.5 329.5t-229.5 261t-267 102.5q-129 0 -212 -105.5t-83 -238.5zM757 2671q0 86 164 86h311q103 0 141 -28t64 -128q22 -69 44 -136t38.5 -131.5t16.5 -105.5q0 -135 -82 -135q-43 0 -135 61l-455 357q-107 78 -107 160z" />
<glyph unicode="&#xf3;" horiz-adv-x="2298" d="M78 918q0 265 138 480.5t369 336t492 120.5q206 0 411 -74t370.5 -209t263.5 -322t98 -402q0 -297 -157.5 -494.5t-413 -290t-543.5 -92.5q-306 0 -538 107t-361 321t-129 519zM623 1270q0 -192 87.5 -433.5t247 -410t361.5 -168.5q149 0 230 104.5t81 260.5 q0 127 -58 298t-157.5 329.5t-229.5 261t-267 102.5q-129 0 -212 -105.5t-83 -238.5zM762 2208q0 42 17 82l86 315q27 99 63.5 125.5t140.5 26.5h308q146 0 159 -62q0 -4 2 -14t2 -15q0 -71 -102 -155l-455 -352q-73 -66 -135 -66q-39 0 -62.5 36.5t-23.5 78.5z" />
<glyph unicode="&#xf4;" horiz-adv-x="2298" d="M78 918q0 265 138 480.5t369 336t492 120.5q206 0 411 -74t370.5 -209t263.5 -322t98 -402q0 -297 -157.5 -494.5t-413 -290t-543.5 -92.5q-306 0 -538 107t-361 321t-129 519zM483 2220q0 95 127 184l352 279q113 86 185 86q57 0 223 -105.5t302.5 -233t137.5 -198.5 q0 -50 -31.5 -89.5t-78.5 -45.5q-87 0 -180.5 50.5t-186 100.5t-178.5 50q-66 0 -126 -25.5t-144.5 -77.5t-141.5 -77t-125 -25q-56 0 -95.5 37t-39.5 90zM623 1270q0 -192 87.5 -433.5t247 -410t361.5 -168.5q149 0 230 104.5t81 260.5q0 127 -58 298t-157.5 329.5 t-229.5 261t-267 102.5q-129 0 -212 -105.5t-83 -238.5z" />
<glyph unicode="&#xf5;" horiz-adv-x="2298" d="M78 918q0 265 138 480.5t369 336t492 120.5q206 0 411 -74t370.5 -209t263.5 -322t98 -402q0 -297 -157.5 -494.5t-413 -290t-543.5 -92.5q-306 0 -538 107t-361 321t-129 519zM434 2306q0 164 108 293t269 129q93 0 176 -22t197.5 -64.5t184 -62t138.5 -19.5 q39 0 64.5 20t53.5 60.5t49 61t59 26.5q60 0 93.5 -44.5t33.5 -107.5q0 -161 -108.5 -295.5t-264.5 -134.5q-78 0 -150.5 19.5t-191.5 62.5t-188 62.5t-146 23.5q-51 0 -92.5 -40l-83 -80t-90.5 -40q-54 0 -82.5 46t-28.5 106zM623 1270q0 -192 87.5 -433.5t247 -410 t361.5 -168.5q149 0 230 104.5t81 260.5q0 127 -58 298t-157.5 329.5t-229.5 261t-267 102.5q-129 0 -212 -105.5t-83 -238.5z" />
<glyph unicode="&#xf6;" horiz-adv-x="2298" d="M78 918q0 265 138 480.5t369 336t492 120.5q206 0 411 -74t370.5 -209t263.5 -322t98 -402q0 -297 -157.5 -494.5t-413 -290t-543.5 -92.5q-306 0 -538 107t-361 321t-129 519zM340 2367q0 148 175 246.5t333 98.5q81 0 141 -50.5t60 -130.5q0 -104 -81 -186.5t-200 -128 t-219 -45.5q-85 0 -147 58.5t-62 137.5zM623 1270q0 -192 87.5 -433.5t247 -410t361.5 -168.5q149 0 230 104.5t81 260.5q0 127 -58 298t-157.5 329.5t-229.5 261t-267 102.5q-129 0 -212 -105.5t-83 -238.5zM1241 2367q0 148 175 246.5t333 98.5q81 0 141 -50.5t60 -130.5 q0 -104 -81 -186.5t-200 -128t-219 -45.5q-85 0 -147 58.5t-62 137.5z" />
<glyph unicode="&#xf7;" d="M29 1323v315h1986v-315h-1986zM782 778q0 98 70 168t168 70t170 -70t72 -168t-72.5 -169.5t-169.5 -71.5t-167.5 71.5t-70.5 169.5zM782 2179q0 98 72 168t170 70t170 -70t72 -168t-72 -170t-170 -72t-170 72t-72 170z" />
<glyph unicode="&#xf8;" horiz-adv-x="2298" d="M78 918q0 265 138 480.5t369 336t492 120.5q354 0 647 -184l213 230q32 36 82 49q43 0 77 -30t34 -73q0 -34 -37 -85t-104.5 -119.5t-96.5 -98.5q148 -134 238 -322t90 -378q0 -296 -157.5 -492.5t-413 -288.5t-543.5 -92q-321 0 -574 123q-37 -43 -86 -100t-96 -97 t-88 -44q-34 0 -67 20t-39 53q0 53 31.5 101t96.5 109t76 73q-282 254 -282 709zM623 1270q0 -306 163 -606l594 639q-239 311 -462 311q-129 0 -212 -105.5t-83 -238.5zM905 492q197 -234 414 -234q149 0 230 104.5t81 260.5q0 78 -19 155.5t-62.5 193.5t-53.5 146z" />
<glyph unicode="&#xf9;" horiz-adv-x="2220" d="M37 1475q0 81 98 118l488 213q38 17 61 17q107 0 107 -205l4 -213l20 -528q0 -562 242 -562q103 0 178.5 58t114.5 151.5t39 192.5q0 87 -4.5 209t-4.5 188q0 157 -38 189.5t-116.5 54.5t-78.5 96q0 70 106 115l467 213q68 33 115 33q94 0 94 -181v-975q0 -169 25 -290 q14 -40 37.5 -63t74 -61t74 -66.5t23.5 -67.5q-11 -111 -185 -111h-479q-75 0 -97 34t-22 105v94q-317 -294 -594 -294q-212 0 -326 117.5t-152 293.5t-42.5 370.5t-7.5 401.5q-5 134 -17 185t-89 69q-115 16 -115 99zM680 2671q0 86 164 86h311q103 0 141 -28t64 -128 q22 -69 44 -136t38.5 -131.5t16.5 -105.5q0 -135 -82 -135q-43 0 -135 61l-455 357q-107 78 -107 160z" />
<glyph unicode="&#xfa;" horiz-adv-x="2220" d="M37 1475q0 81 98 118l488 213q38 17 61 17q107 0 107 -205l4 -213l20 -528q0 -562 242 -562q103 0 178.5 58t114.5 151.5t39 192.5q0 87 -4.5 209t-4.5 188q0 157 -38 189.5t-116.5 54.5t-78.5 96q0 70 106 115l467 213q68 33 115 33q94 0 94 -181v-975q0 -169 25 -290 q14 -40 37.5 -63t74 -61t74 -66.5t23.5 -67.5q-11 -111 -185 -111h-479q-75 0 -97 34t-22 105v94q-317 -294 -594 -294q-212 0 -326 117.5t-152 293.5t-42.5 370.5t-7.5 401.5q-5 134 -17 185t-89 69q-115 16 -115 99zM729 2208q0 42 17 82l86 315q27 99 63.5 125.5 t140.5 26.5h308q146 0 159 -62q0 -4 2 -14t2 -15q0 -71 -102 -155l-455 -352q-73 -66 -135 -66q-39 0 -62.5 36.5t-23.5 78.5z" />
<glyph unicode="&#xfb;" horiz-adv-x="2220" d="M37 1475q0 81 98 118l488 213q38 17 61 17q107 0 107 -205l4 -213l20 -528q0 -562 242 -562q103 0 178.5 58t114.5 151.5t39 192.5q0 87 -4.5 209t-4.5 188q0 157 -38 189.5t-116.5 54.5t-78.5 96q0 70 106 115l467 213q68 33 115 33q94 0 94 -181v-975q0 -169 25 -290 q14 -40 37.5 -63t74 -61t74 -66.5t23.5 -67.5q-11 -111 -185 -111h-479q-75 0 -97 34t-22 105v94q-317 -294 -594 -294q-212 0 -326 117.5t-152 293.5t-42.5 370.5t-7.5 401.5q-5 134 -17 185t-89 69q-115 16 -115 99zM451 2220q0 95 127 184l352 279q113 86 185 86 q57 0 223 -105.5t302.5 -233t137.5 -198.5q0 -50 -31.5 -89.5t-78.5 -45.5q-87 0 -180.5 50.5t-186 100.5t-178.5 50q-66 0 -126 -25.5t-144.5 -77.5t-141.5 -77t-125 -25q-56 0 -95.5 37t-39.5 90z" />
<glyph unicode="&#xfc;" horiz-adv-x="2220" d="M37 1475q0 81 98 118l488 213q38 17 61 17q107 0 107 -205l4 -213l20 -528q0 -562 242 -562q103 0 178.5 58t114.5 151.5t39 192.5q0 87 -4.5 209t-4.5 188q0 157 -38 189.5t-116.5 54.5t-78.5 96q0 70 106 115l467 213q68 33 115 33q94 0 94 -181v-975q0 -169 25 -290 q14 -40 37.5 -63t74 -61t74 -66.5t23.5 -67.5q-11 -111 -185 -111h-479q-75 0 -97 34t-22 105v94q-317 -294 -594 -294q-212 0 -326 117.5t-152 293.5t-42.5 370.5t-7.5 401.5q-5 134 -17 185t-89 69q-115 16 -115 99zM274 2367q0 148 175 246.5t333 98.5q81 0 141 -50.5 t60 -130.5q0 -104 -81 -186.5t-200 -128t-219 -45.5q-85 0 -147 58.5t-62 137.5zM1175 2367q0 148 175 246.5t333 98.5q81 0 141 -50.5t60 -130.5q0 -104 -81 -186.5t-200 -128t-219 -45.5q-85 0 -147 58.5t-62 137.5z" />
<glyph unicode="&#xff;" horiz-adv-x="2040" d="M-61 1692q5 114 143 114h729q142 0 156 -86q0 -48 -21 -73t-64 -49.5t-63.5 -43.5t-23.5 -55q0 -73 36 -156l295 -643l275 615q41 100 41 160q0 47 -44 78.5l-88 63t-44 79.5q0 55 43 82.5t100 27.5h557q137 0 148 -98q0 -55 -29.5 -82.5t-97.5 -69.5q-158 -89 -275 -352 l-500 -1134q-298 -680 -737 -680q-170 0 -266 65q-58 31 -105 241.5t-47 315.5q0 37 21 68t57 31q51 0 84 -32.5t90.5 -107.5t106 -111t121.5 -36q176 0 294 246l-585 1261q-80 175 -180 221q-65 31 -94 56.5t-29 74.5zM217 2367q0 148 175 246.5t333 98.5q81 0 141 -50.5 t60 -130.5q0 -104 -81 -186.5t-200 -128t-219 -45.5q-85 0 -147 58.5t-62 137.5zM1118 2367q0 148 175 246.5t333 98.5q81 0 141 -50.5t60 -130.5q0 -104 -81 -186.5t-200 -128t-219 -45.5q-85 0 -147 58.5t-62 137.5z" />
<glyph unicode="&#x152;" horiz-adv-x="4878" d="M94 1196q0 322 115 612t325.5 511t494.5 343.5t609 122.5q122 0 345 -28.5t335 -28.5h1246q108 0 186 14t145 60q3 2 31 20t51 27.5t41 9.5q84 0 135 -82l365 -520q28 -43 33 -82q0 -57 -33.5 -102t-89.5 -45q-28 0 -133.5 76.5t-205.5 136.5t-279.5 113.5t-405.5 53.5 q-213 0 -307 -41q-74 -29 -74 -213q0 -35 4 -95t4 -77q3 -134 43 -177.5t170 -43.5q178 0 221 78l37 74q26 53 107 53q88 0 131 -78l340 -512q27 -40 32 -78q0 -61 -33.5 -110t-93.5 -49q-49 0 -184 88.5t-244.5 141t-259.5 52.5q-123 0 -181 -20t-79 -75.5t-26 -178.5 q0 -60 -6.5 -160.5t-6.5 -155.5q0 -203 54 -344q47 -98 266 -98h102q259 0 442.5 16t368 78t336.5 185q20 17 56 49t69 50.5t68 18.5q44 0 79 -37.5t35 -89.5q0 -61 -28 -102l-353 -614q-39 -73 -123 -86q-48 0 -126.5 49.5t-125.5 71.5t-145 22h-61h-1741 q-392 -57 -524 -57q-415 0 -769 133t-569 416t-215 704zM922 1298q0 -249 66.5 -474t225 -369t412.5 -144q380 0 542.5 261t162.5 669q0 255 -65.5 534.5t-223.5 479t-416 199.5q-263 0 -421 -184.5t-220.5 -448.5t-62.5 -523z" />
<glyph unicode="&#x153;" horiz-adv-x="3564" d="M78 930q0 198 80.5 369.5t220 296t320.5 192t374 67.5q232 0 442 -75.5t349 -227.5q331 287 704 287q442 0 717 -319q172 -209 172 -316q-8 -39 -254 -143l-881 -393q64 -168 214.5 -268.5t334.5 -100.5q166 0 274.5 58t209.5 149t143 100q41 0 69.5 -27.5t28.5 -70.5 q0 -104 -184 -254q-349 -283 -844 -283q-400 0 -676 234q-347 -234 -794 -234q-297 0 -529.5 112.5t-361.5 329.5t-129 517zM614 1270q0 -186 90 -426.5t249 -413t354 -172.5q156 0 236 103t83 262q-23 363 -233 655q-239 336 -480 336q-132 0 -215.5 -104.5t-83.5 -239.5z M2134 1241q0 -92 31.5 -222t95.5 -130q8 0 31 6t30 6l373 172q71 31 97 48t26 59q0 81 -65 176t-161.5 160t-178.5 65q-125 0 -202 -105.5t-77 -234.5z" />
<glyph unicode="&#x178;" horiz-adv-x="2916" d="M-74 2617q10 115 176 115h988q147 0 147 -127q0 -51 -24.5 -78t-70.5 -48t-67.5 -36.5t-21.5 -46.5q0 -38 19.5 -68.5t55.5 -71t48 -61.5l454 -593l492 679q49 76 49 127q-4 34 -63.5 69t-82 55t-22.5 77q0 52 45 87.5t98 35.5h688q177 0 177 -119q0 -63 -33 -92.5 t-99 -50.5q-99 -34 -172 -131l-720 -991q-39 -49 -64.5 -81.5t-36 -84t-10.5 -162.5q0 -48 -2 -150t-2 -153q0 -209 24 -336q14 -54 81.5 -84t122 -59t59.5 -95q0 -143 -209 -143h-885q-63 0 -103 37.5t-40 101.5q0 65 31 90.5t101.5 56t106 73t35.5 133.5q0 40 2 122t2 123 q0 286 -119 439l-786 1077q-64 88 -104 125t-121 67q-140 58 -140 160zM660 3272q0 148 175 246.5t333 98.5q81 0 141 -50.5t60 -130.5q0 -104 -81 -186.5t-200 -128t-219 -45.5q-85 0 -147 58.5t-62 137.5zM1561 3272q0 148 175 246.5t333 98.5q81 0 141 -50.5t60 -130.5 q0 -104 -81 -186.5t-200 -128t-219 -45.5q-85 0 -147 58.5t-62 137.5z" />
<glyph unicode="&#x2c6;" d="M385 2220q0 95 127 184l352 279q113 86 185 86q57 0 223 -105.5t302.5 -233t137.5 -198.5q0 -50 -31.5 -89.5t-78.5 -45.5q-87 0 -180.5 50.5t-186 100.5t-178.5 50q-66 0 -126 -25.5t-144.5 -77.5t-141.5 -77t-125 -25q-56 0 -95.5 37t-39.5 90z" />
<glyph unicode="&#x2dc;" d="M311 2306q0 164 108 293t269 129q93 0 176 -22t197.5 -64.5t184 -62t138.5 -19.5q39 0 64.5 20t53.5 60.5t49 61t59 26.5q60 0 93.5 -44.5t33.5 -107.5q0 -161 -108.5 -295.5t-264.5 -134.5q-78 0 -150.5 19.5t-191.5 62.5t-188 62.5t-146 23.5q-51 0 -92.5 -40l-83 -80 t-90.5 -40q-54 0 -82.5 46t-28.5 106z" />
<glyph unicode="&#x2000;" horiz-adv-x="1870" />
<glyph unicode="&#x2001;" horiz-adv-x="3740" />
<glyph unicode="&#x2002;" horiz-adv-x="1870" />
<glyph unicode="&#x2003;" horiz-adv-x="3740" />
<glyph unicode="&#x2004;" horiz-adv-x="1246" />
<glyph unicode="&#x2005;" horiz-adv-x="935" />
<glyph unicode="&#x2006;" horiz-adv-x="623" />
<glyph unicode="&#x2007;" horiz-adv-x="623" />
<glyph unicode="&#x2008;" horiz-adv-x="467" />
<glyph unicode="&#x2009;" horiz-adv-x="748" />
<glyph unicode="&#x200a;" horiz-adv-x="207" />
<glyph unicode="&#x2010;" horiz-adv-x="987" d="M20 946q0 152 267 152h401q118 0 192.5 -24.5t77.5 -115.5q0 -99 -75.5 -127t-198.5 -28h-393q-121 0 -196 25t-75 118z" />
<glyph unicode="&#x2011;" horiz-adv-x="987" d="M20 946q0 152 267 152h401q118 0 192.5 -24.5t77.5 -115.5q0 -99 -75.5 -127t-198.5 -28h-393q-121 0 -196 25t-75 118z" />
<glyph unicode="&#x2012;" horiz-adv-x="987" d="M20 946q0 152 267 152h401q118 0 192.5 -24.5t77.5 -115.5q0 -99 -75.5 -127t-198.5 -28h-393q-121 0 -196 25t-75 118z" />
<glyph unicode="&#x2013;" horiz-adv-x="1843" d="M66 946q0 152 266 152h1188q118 0 192.5 -24.5t77.5 -115.5q0 -99 -75.5 -127t-198.5 -28h-1180q-121 0 -195.5 25t-74.5 118z" />
<glyph unicode="&#x2014;" horiz-adv-x="2679" d="M8 946q0 152 266 152h2143q118 0 192.5 -24.5t77.5 -115.5q0 -99 -75.5 -127t-198.5 -28h-2134q-121 0 -196 25t-75 118z" />
<glyph unicode="&#x2018;" horiz-adv-x="889" d="M164 1888v66q0 223 25 391t121.5 292t291.5 124q123 0 123 -95q0 -40 -73.5 -95t-104.5 -87.5t-31 -111.5q0 -95 82 -95q82 -6 104.5 -38t22.5 -121v-254q0 -105 -30 -134.5t-138 -29.5h-217q-84 0 -119.5 14t-46 50t-10.5 124z" />
<glyph unicode="&#x2019;" horiz-adv-x="889" d="M164 1794q0 39 71 92.5t104.5 88.5t33.5 114q0 94 -82 94q-82 6 -104.5 39t-22.5 121v254q0 105 30 134.5t138 29.5h217q120 0 148 -33t28 -156v-65q0 -224 -24.5 -391.5t-121.5 -291.5t-292 -124q-123 0 -123 94z" />
<glyph unicode="&#x201a;" horiz-adv-x="1061" d="M217 180v283q0 83 14 120.5t53 50.5t122 13q56 0 139 4t110 4q100 0 142.5 -42.5t42.5 -174.5v-295q0 -274 -116 -472.5t-376 -198.5q-63 0 -97 19t-34 83q0 49 82.5 108.5t117 94t34.5 121.5q0 104 -95 110q-90 3 -114.5 39t-24.5 133z" />
<glyph unicode="&#x201c;" horiz-adv-x="1626" d="M164 1888v66q0 223 25 391t121.5 292t291.5 124q123 0 123 -95q0 -40 -73.5 -95t-104.5 -87.5t-31 -111.5q0 -95 82 -95q82 -6 104.5 -38t22.5 -121v-254q0 -105 -30 -134.5t-138 -29.5h-217q-84 0 -119.5 14t-46 50t-10.5 124zM897 1888v66q0 223 25 391t121.5 292 t291.5 124q123 0 123 -95q0 -40 -73.5 -95t-104.5 -87.5t-31 -111.5q0 -95 82 -95q82 -6 104.5 -38t22.5 -121v-254q0 -105 -30 -134.5t-138 -29.5h-217q-84 0 -119.5 14t-46 50t-10.5 124z" />
<glyph unicode="&#x201d;" horiz-adv-x="1626" d="M164 1794q0 39 71 92.5t104.5 88.5t33.5 114q0 94 -82 94q-82 6 -104.5 39t-22.5 121v254q0 105 30 134.5t138 29.5h217q120 0 148 -33t28 -156v-65q0 -224 -24.5 -391.5t-121.5 -291.5t-292 -124q-123 0 -123 94zM901 1794q0 39 71 92.5t104.5 88.5t33.5 114 q0 94 -82 94q-82 6 -104.5 39t-22.5 121v254q0 105 30.5 134.5t137.5 29.5h217q120 0 148 -33t28 -156v-65q0 -224 -24.5 -391.5t-121.5 -291.5t-292 -124q-123 0 -123 94z" />
<glyph unicode="&#x201e;" horiz-adv-x="1626" d="M164 168v254q0 105 30 134.5t138 29.5q47 0 122 4t99 4q94 0 133 -39t39 -158v-266q0 -602 -492 -602q-28 3 -48.5 30.5t-20.5 59.5q0 46 72.5 96.5t104.5 82.5t32 116q0 94 -82 94q-82 6 -104.5 39t-22.5 121zM901 168v254q0 105 30.5 134.5t137.5 29.5q47 0 122 4t99 4 q94 0 133 -39t39 -158v-266q0 -244 -103.5 -423t-334.5 -179q-123 0 -123 90q0 43 72 95t104.5 84.5t32.5 115.5q0 94 -82 94q-82 6 -104.5 39t-22.5 121z" />
<glyph unicode="&#x2022;" horiz-adv-x="2458" d="M811 1171q0 164 115 279t278 115q166 0 284 -115t118 -279q0 -163 -118 -278t-284 -115q-163 0 -278 115t-115 278z" />
<glyph unicode="&#x2026;" horiz-adv-x="3178" d="M221 213q0 34 2 101t2 100q0 136 39.5 176.5t173.5 40.5h197q91 0 133.5 -15.5t57 -60t14.5 -137.5v-176q0 -116 -9 -160.5t-49.5 -63t-138.5 -18.5h-192q-146 0 -188 40t-42 173zM1282 213q0 34 2 101t2 100q0 96 17.5 142t61 60.5t134.5 14.5h197q124 0 162 -33.5 t38 -146.5q0 -35 2.5 -96t2.5 -113q0 -111 -10 -158t-52 -65.5t-139 -18.5h-189q-145 0 -187 40t-42 173zM2343 209q0 39 2 119t2 118q0 116 40 150.5t173 34.5h193q127 0 165.5 -34.5t38.5 -150.5v-204q0 -116 -9 -160.5t-49 -63t-138 -18.5h-189q-101 0 -148 16.5t-64 60 t-17 132.5z" />
<glyph unicode="&#x202f;" horiz-adv-x="748" />
<glyph unicode="&#x2039;" horiz-adv-x="1028" d="M111 909q0 77 37 145.5t106 162.5q8 11 119 190t196.5 273t167.5 94q45 0 76 -30t31 -77q0 -111 -64.5 -235.5t-129 -249.5t-64.5 -236q0 -84 36.5 -166t108.5 -202t106.5 -193t34.5 -143q0 -51 -36 -87t-86 -36q-81 0 -229.5 155.5t-275.5 353t-134 281.5z" />
<glyph unicode="&#x203a;" horiz-adv-x="1028" d="M176 1655q0 49 34.5 86t84.5 37q58 0 164 -93t214 -227.5t185 -266t80 -200.5q0 -79 -35 -143.5t-108 -167.5q-19 -27 -95 -151.5t-129.5 -201.5t-124.5 -140.5t-135 -63.5q-46 0 -76 31t-30 75q0 90 32.5 168.5t96 189.5t96.5 192.5t33 170.5q0 86 -37 169t-112 208 t-106.5 190.5t-31.5 137.5z" />
<glyph unicode="&#x205f;" horiz-adv-x="935" />
<glyph unicode="&#x20ac;" horiz-adv-x="2732" d="M123 2429l213 213l401 -406q278 185 627 185q291 0 618 -193l418 418l209 -213l-422 -422q176 -314 176 -635q0 -278 -180 -581l418 -418l-209 -213l-410 409q-335 -192 -622 -192q-301 0 -619 188l-405 -405l-209 213l401 397q-97 172 -142.5 317.5t-45.5 317.5 q0 278 184 619zM807 1401q0 -149 76.5 -275t205 -200t275.5 -74q145 0 272.5 74.5t202 202t74.5 272.5q0 146 -74 273.5t-201.5 203.5t-273.5 76q-145 0 -274.5 -75t-206 -202.5t-76.5 -275.5z" />
<glyph unicode="&#x2122;" horiz-adv-x="4624" d="M25 2298q0 23 32 90l217 356q34 58 86 58q60 0 86 -33q57 -41 144 -41h782q127 0 180 37q67 37 90 37q59 0 107 -78q39 -74 81.5 -152.5t73 -144t38.5 -105.5q0 -98 -78 -98q-57 0 -166 89.5t-178.5 133t-192.5 43.5q-83 0 -103 -28t-20 -111v-20v-570q0 -266 13 -397 q1 -35 21 -49.5t63.5 -32t65.5 -37.5t22 -61q-5 -94 -168 -94h-488q-164 0 -168 94q0 37 21.5 57.5t66.5 41t64 34t20 47.5q13 131 13 397v590q0 77 -19 110t-92 33q-127 0 -194 -45t-169 -137t-161 -92q-35 0 -62.5 23.5t-27.5 54.5zM1978 1180q0 25 17 41t68 54.5t78.5 69 t37.5 72.5l295 950q16 66 16 103q0 36 -34.5 56t-69.5 39.5t-35 55.5q0 42 46.5 74.5t117.5 32.5h442q126 0 131 -82q0 -34 -15 -53.5t-45 -37t-44 -30t-14 -35.5q0 -33 24 -73l299 -557q17 -54 37 -54q7 0 15 10.5t14.5 24t11.5 23.5l283 553q20 33 20 77q-5 23 -53.5 48.5 t-67 41t-18.5 58.5t42 64.5t89 21.5h459q139 0 143 -82q0 -34 -18 -52t-53.5 -36.5t-55.5 -36t-20 -47.5q0 -38 24 -102l270 -947q18 -61 39.5 -87t75.5 -48q90 -40 90 -102q0 -46 -37 -72t-86 -26h-577q-115 0 -115 102q0 65 82 94q57 18 57 57q0 15 -3.5 30.5t-11 41.5 t-13.5 47l-139 545l-422 -786q-35 -62 -59 -92.5t-64 -30.5q-44 0 -68 28.5t-55 85.5l-414 828l-205 -627q-16 -58 -16 -90q0 -23 12 -33.5t43.5 -29.5t47.5 -35.5t16 -44.5q0 -90 -123 -90h-397q-38 0 -66.5 26.5t-28.5 63.5z" />
<glyph unicode="&#xfb01;" horiz-adv-x="2392" d="M33 1704q0 74 106 74h185q-65 96 -119 174t-88.5 157t-34.5 168q0 229 199 360.5t440 131.5q200 0 378.5 -97t178.5 -280q0 -124 -91 -207.5t-216 -83.5q-87 0 -169.5 44.5t-125.5 119.5q90 32 90 90q0 45 -38 69.5t-85 24.5q-54 0 -95.5 -36t-47.5 -91q0 -58 41.5 -116 t131 -150.5t138.5 -153t66 -124.5h274q74 0 74 -45q0 -267 -127 -275q-37 0 -111 -4t-110 -4v-602v-86q0 -248 28 -385q12 -43 36.5 -65t79.5 -56t80 -63t25 -78q0 -115 -188 -115h-668q-187 0 -196 115q0 54 26.5 77t87.5 56t82 63q54 74 54 406v405q0 184 -17 340 q-62 0 -184 8q-36 3 -54.5 26.5t-25.5 61.5t-8 83.5t-2 62.5zM1303 115q0 55 26.5 79.5t84.5 55.5t81 61q53 68 53 377v451q0 118 -16 172q-9 27 -69 50.5t-87.5 42t-27.5 75.5q0 46 30.5 72t83.5 51l484 213q35 18 73 24q82 0 82 -135v-856q0 -26 -2 -94t-2 -107 q0 -161 25 -270q22 -76 123 -127q102 -60 102 -127q0 -123 -197 -123h-655q-183 0 -192 115zM1421 2253q0 91 84.5 167.5t200 120.5t199.5 44q77 0 134.5 -48.5t57.5 -123.5q0 -99 -77.5 -178t-192 -123t-209.5 -44q-79 0 -138 55.5t-59 129.5z" />
<glyph unicode="&#xfb02;" horiz-adv-x="2396" d="M33 1704q0 74 106 74h185q-65 96 -119 174t-88.5 157t-34.5 168q0 229 199 360.5t440 131.5q200 0 378.5 -97t178.5 -280q0 -124 -91 -207.5t-216 -83.5q-87 0 -169.5 44.5t-125.5 119.5q90 32 90 90q0 45 -38 69.5t-85 24.5q-54 0 -95.5 -36t-47.5 -91q0 -58 41.5 -116 t131 -150.5t138.5 -153t66 -124.5h274q74 0 74 -45q0 -267 -127 -275q-37 0 -111 -4t-110 -4v-602v-86q0 -248 28 -385q12 -43 36.5 -65t79.5 -56t80 -63t25 -78q0 -115 -188 -115h-668q-187 0 -196 115q0 54 26.5 77t87.5 56t82 63q54 74 54 406v405q0 184 -17 340 q-62 0 -184 8q-36 3 -54.5 26.5t-25.5 61.5t-8 83.5t-2 62.5zM1303 115q0 67 39.5 90.5t90.5 51.5t85 117.5t34 289.5q0 40 -2 104t-2 80v930v110q0 132 -32 189.5t-77 76.5t-88.5 40.5t-43.5 78.5q0 77 139 148l491 274q53 25 78 25q82 0 82 -193v-1679q0 -316 29 -471 q18 -78 123 -127q98 -63 98 -123q0 -127 -193 -127h-659q-183 0 -192 115z" />
</font>
</defs>
</svg>
